<svg width="158" height="98" viewBox="0 0 158 98" fill="none" xmlns="http://www.w3.org/2000/svg">
<path d="M33.2773 12.3551V12.3649C33.2768 12.3721 33.2755 12.3835 33.2744 12.3981C33.2721 12.4285 33.2682 12.4749 33.2637 12.5358C33.2545 12.6582 33.2412 12.841 33.2246 13.0778C33.1913 13.5521 33.1453 14.2449 33.0938 15.11C32.9906 16.8419 32.8667 19.2634 32.7842 22.0133C32.6779 25.5573 32.6421 29.5875 32.7979 33.3757C33.2076 33.0441 33.628 32.7278 34.0576 32.4264L34.043 32.3981C34.5954 32.0243 35.1654 31.6742 35.752 31.3483C37.6977 30.2308 39.8094 29.4152 42.0488 28.9645C43.8713 28.5571 45.7963 28.3444 47.8115 28.3444C52.9485 28.3445 57.6658 30.248 61.5107 33.4196C61.3144 32.9696 61.1854 32.6017 61.1865 32.5846L61.2061 32.6257L59.6445 28.7741H80.3193L80.9199 30.7663L85.8301 47.0651L90.5127 42.3805V53.8034L89.6934 54.6237L88.7598 55.5573L89.6934 56.4919L90.5127 57.3122V58.5993L95.6221 35.4606L96.7246 30.4645L96.25 28.9655H97.0566L97.6094 26.4626L98.5879 28.9655H111.371L111.905 31.0788L117.635 53.7399L117.703 54.0075L118.567 57.4274L119.429 60.8356L128.489 30.7663L129.089 28.7741H149.764L148.203 32.6257C148.307 32.3704 147.982 33.3493 147.545 34.152C147.049 35.0622 146.26 36.1526 145.006 37.1667C141.082 40.3383 139.059 43.2939 137.46 47.2409C133.133 57.9203 129.483 66.9263 124.24 79.8649L124.814 82.1374H113.012L113.052 82.0026L112.476 80.1833L107.717 65.1608L104.339 68.5426V57.3659L105.158 56.5456L106.151 55.5505L105.158 54.5553L104.339 53.735V48.0505L103.705 47.4206L97.0449 75.0036L95.8008 80.1569L96.3975 82.1374H95.3223L94.5664 85.2702L93.6611 82.1374H86.0889L85.3799 80.3893L77.2744 60.3854L75.6865 56.4665C74.461 53.442 73.234 50.4139 71.9482 47.2409C70.6837 44.1204 69.1528 41.6211 66.6289 39.1432C69.6447 43.6979 71.4238 49.3159 71.4238 55.2409C71.4236 69.7109 60.2008 82.1368 47.1201 82.1374C44.5771 82.1374 42.1464 81.7218 39.876 80.9528C37.3666 80.1549 35.047 78.8907 32.9814 77.2536C33.0254 77.5036 33.0743 77.7515 33.1279 77.9948C33.1619 78.0853 33.1857 78.1571 33.1963 78.1921C33.2332 78.3142 33.2594 78.427 33.2744 78.4938C33.2917 78.5708 33.3079 78.6499 33.3213 78.7233C33.3281 78.7605 33.3359 78.8037 33.3428 78.8483C33.3489 78.8879 33.3583 78.9549 33.3662 79.0329C33.3701 79.0711 33.3768 79.1387 33.3799 79.2214C33.3815 79.2637 33.3828 79.3273 33.3809 79.403C33.3791 79.4705 33.3732 79.6002 33.3486 79.7604C33.3359 79.8431 33.3134 79.9653 33.2725 80.1081C33.2341 80.2419 33.1595 80.4651 33.0166 80.7174C32.8786 80.9609 32.5999 81.3674 32.0957 81.6921C31.8344 81.8603 31.5257 81.9978 31.1777 82.0739C30.8297 82.15 30.491 82.1544 30.1816 82.11C29.799 82.0551 29.4867 81.9297 29.252 81.8034H18.1406V15.2087L19.6826 14.4333L29.2285 9.63249L33.6689 7.39909L33.2773 12.3551ZM30.4863 81.7507C30.8226 81.7515 31.1581 81.6958 31.4756 81.5768C32.182 81.312 32.5913 80.8396 32.7881 80.5573C32.988 80.2705 33.0904 80.0095 33.1387 79.8688C33.1918 79.7142 33.2211 79.5837 33.2373 79.5007C33.2689 79.3388 33.2777 79.2102 33.2812 79.153C33.2854 79.0862 33.2861 79.0333 33.2861 79.0036H30.4863V81.7507ZM48.165 79.3053C47.8176 79.326 47.4689 79.3366 47.1191 79.3366C46.8793 79.3366 46.6407 79.3313 46.4033 79.3229C46.6409 79.3313 46.8801 79.3376 47.1201 79.3376C47.4695 79.3376 47.8179 79.326 48.165 79.3053ZM121.433 79.3366H115.145V79.3376H121.434C126.791 66.1169 130.48 57.0129 134.865 46.1901L134.864 46.1891C130.479 57.0121 126.79 66.1159 121.433 79.3366ZM94.3232 74.3454V74.3464L101.578 44.3034L101.577 44.3024L94.3232 74.3454ZM45.832 37.5544C40.0361 40.0046 35.5293 46.709 35.5293 55.2409C35.5295 63.7724 40.0364 70.4761 45.832 72.9264C51.6276 70.4761 56.1346 63.7723 56.1348 55.2409C56.1348 46.7092 51.6277 40.0048 45.832 37.5544ZM119.192 71.3268V71.3249L115.462 56.568L119.192 71.3268ZM30.4854 70.7878H30.4863V70.5817L30.4854 70.5798V70.7878ZM87.4775 61.5182L87.7129 61.2829L87.4775 61.5173L84.4453 58.4841L87.4775 61.5182ZM58.9209 56.0212C58.9231 55.946 58.9271 55.8709 58.9287 55.7956L58.9297 55.7008C58.9278 55.8078 58.9241 55.9146 58.9209 56.0212ZM30.3633 38.694C30.4013 39.0572 30.4416 39.4146 30.4854 39.7653V39.9001L30.4863 39.8991V39.7653C30.4445 39.43 30.4048 39.0885 30.3682 38.7419C30.3665 38.7259 30.365 38.71 30.3633 38.694ZM30.25 37.5046C30.2584 37.6022 30.2676 37.6995 30.2764 37.7966C30.2676 37.6995 30.2584 37.6022 30.25 37.5046ZM41.7539 36.5944C41.7112 36.6238 41.6694 36.6545 41.627 36.6842C41.6896 36.6403 41.7523 36.5964 41.8154 36.5534L41.7539 36.5944Z" fill="#D9D9D9"/>
<path d="M20.5347 16.9342L30.0873 12.134C30.0873 12.134 28.7501 29.0422 30.0873 39.7651C30.0873 51.8801 30.0873 60.4466 30.0873 70.7874C29.2037 73.3666 29.5026 76.5906 30.0873 79.0027C30.0873 78.7082 30.3016 79.8863 30.0873 79.0027H20.5347V16.9342Z" fill="#0A2540"/>
<path d="M45.7537 31.3588C49.8891 31.3588 53.7376 32.7933 56.9547 35.2595C54.9005 34.2836 52.6603 33.7469 50.3151 33.7469C40.3834 33.7469 32.3322 43.3699 32.3322 55.2404C32.3322 67.111 40.3834 76.734 50.3151 76.734C52.6603 76.734 54.9005 76.1973 56.9547 75.2213C53.7376 77.6876 49.8891 79.1221 45.7537 79.1221C34.4635 79.1221 25.311 68.4299 25.311 55.2404C25.311 42.051 34.4635 31.3588 45.7537 31.3588Z" fill="#0A2540"/>
<path d="M47.4255 31.1438C58.7157 31.1438 68.2525 42.051 68.2525 55.2404C68.2525 68.4299 58.0231 79.3371 46.7329 79.3371C42.5674 79.3371 38.757 78.0716 35.5431 75.8816C37.1395 76.4365 38.8275 76.734 40.5736 76.734C50.5053 76.734 58.5565 67.111 58.5565 55.2404C58.5565 43.3699 50.5053 33.7469 40.5736 33.7469C38.7081 33.7469 36.909 34.0864 35.2171 34.7165C38.5617 32.4545 42.6736 31.1438 47.4255 31.1438Z" fill="#FF6F00"/>
<path d="M145.293 31.5737H130.844L116.444 79.3371H121.1C126.462 66.1162 130.153 57.0123 134.542 46.1893C136.314 41.8189 138.618 38.4702 142.928 34.9888C144.791 33.4842 145.189 31.83 145.293 31.5737Z" fill="#0A2540"/>
<path d="M88.2459 65.9728L92.2753 79.3371H87.6183L78.0747 55.8015L88.2459 65.9728Z" fill="#0A2540"/>
<path d="M88.2459 65.9728L92.2753 79.3371H87.6183L78.0747 55.8015L88.2459 65.9728Z" fill="#007BFF"/>
<path d="M83.4076 49.9252L77.9179 55.4148C76.6911 52.3894 75.464 49.3633 74.1769 46.1893C72.4047 41.8189 70.1008 38.4702 65.7905 34.9888C63.9277 33.4842 63.5301 31.83 63.4262 31.5737H77.8746L83.4076 49.9252Z" fill="#0A2540"/>
<path d="M83.4076 49.9252L77.9179 55.4148C76.6911 52.3894 75.464 49.3633 74.1769 46.1893C72.4047 41.8189 70.1008 38.4702 65.7905 34.9888C63.9277 33.4842 63.5301 31.83 63.4262 31.5737H77.8746L83.4076 49.9252Z" fill="#007BFF"/>
<path d="M87.3556 52.6439L84.4421 55.5574L87.3556 58.471V61.2825L87.1205 61.5177L81.0509 55.4481L87.3556 49.1433V52.6439Z" fill="#0A2540"/>
<path d="M87.3556 52.6439L84.4421 55.5574L87.3556 58.471V61.2825L87.1205 61.5177L81.0509 55.4481L87.3556 49.1433V52.6439Z" fill="#FF6F00"/>
<path d="M113.133 55.4408L106.795 61.7788V58.5246L109.77 55.5502L106.795 52.5757V49.1029L113.133 55.4408Z" fill="#0A2540"/>
<path d="M113.133 55.4408L106.795 61.7788V58.5246L109.77 55.5502L106.795 52.5757V49.1029L113.133 55.4408Z" fill="#007BFF"/>
<path d="M120.886 79.3371H114.807L109.403 62.2893L115.125 56.5677L120.886 79.3371Z" fill="#FF6F00"/>
<path d="M114.65 54.6935L103.547 43.6578L103.554 43.8381L99.7264 31.7647H108.849L114.65 54.6935Z" fill="#FF6F00"/>
<path d="M98.0069 36.0634L101.231 44.3026L93.9709 74.3458L91.4633 65.6767L98.0069 36.0634Z" fill="#0A2540"/>
</svg>
