<svg width="164" height="115" viewBox="0 0 164 115" fill="none" xmlns="http://www.w3.org/2000/svg">
<mask id="path-1-outside-1_11_757" maskUnits="userSpaceOnUse" x="-0.599609" y="-0.955444" width="165" height="113" fill="black">
<rect fill="white" x="-0.599609" y="-0.955444" width="165" height="113"/>
<path d="M5.71484 95.5621C6.11825 95.1135 6.57772 94.7479 7.09375 94.4655C8.04842 93.9351 9.10086 93.6696 10.25 93.6696C11.6464 93.6696 12.8749 93.97 13.9355 94.5709C15.014 95.172 15.8627 96.012 16.4814 97.0905C17.1178 98.1688 17.4365 99.4416 17.4365 100.909C17.4365 102.376 17.1179 103.65 16.4814 104.728C15.8627 105.806 15.0138 106.654 13.9355 107.273C12.8749 107.874 11.6465 108.175 10.25 108.175C9.04785 108.175 7.97799 107.91 7.04102 107.38C6.47465 107.059 5.97993 106.641 5.55566 106.127V107.99H2.40039V88.3131H5.71484V95.5621ZM37.6094 93.6696C38.9881 93.6696 40.2167 93.97 41.2949 94.5709C42.3733 95.172 43.2221 96.0207 43.8408 97.1168C44.4596 98.2129 44.7686 99.5039 44.7686 100.989C44.7685 101.13 44.7598 101.289 44.7422 101.465C44.7422 101.642 44.7335 101.81 44.7158 101.969H33.6055C33.6961 102.459 33.8633 102.91 34.1084 103.322C34.4973 103.976 35.0458 104.48 35.7529 104.834C36.46 105.187 37.2732 105.364 38.1924 105.364C38.9878 105.364 39.7035 105.24 40.3398 104.993C40.9763 104.745 41.5421 104.356 42.0371 103.826L43.8145 105.868C43.1781 106.61 42.3736 107.185 41.4014 107.591C40.4467 107.98 39.3498 108.175 38.1123 108.175C36.5391 108.175 35.16 107.865 33.9756 107.247C32.8089 106.61 31.8982 105.744 31.2441 104.648C30.6078 103.552 30.29 102.305 30.29 100.909C30.2901 99.4946 30.599 98.2479 31.2178 97.1696C31.8542 96.0736 32.7204 95.216 33.8164 94.5973C34.9302 93.9785 36.1951 93.6696 37.6094 93.6696ZM72.4971 93.6696C73.9644 93.6696 75.2641 93.9785 76.3955 94.5973C77.5445 95.216 78.4368 96.0649 79.0732 97.1432C79.7273 98.2215 80.0546 99.4769 80.0547 100.909C80.0547 102.305 79.7274 103.552 79.0732 104.648C78.4368 105.744 77.5445 106.61 76.3955 107.247C75.2641 107.865 73.9644 108.175 72.4971 108.175C71.0474 108.175 69.7564 107.865 68.625 107.247C67.4938 106.61 66.6013 105.744 65.9473 104.648C65.2931 103.552 64.9658 102.305 64.9658 100.909C64.9659 99.4946 65.2932 98.2479 65.9473 97.1696C66.6013 96.0737 67.4938 95.216 68.625 94.5973C69.7564 93.9785 71.0474 93.6696 72.4971 93.6696ZM107.386 103.773C107.987 103.773 108.5 103.977 108.924 104.383C109.348 104.772 109.561 105.303 109.561 105.974C109.561 106.611 109.348 107.141 108.924 107.565C108.5 107.972 107.987 108.175 107.386 108.175C106.785 108.175 106.272 107.972 105.848 107.565C105.423 107.141 105.211 106.611 105.211 105.974C105.211 105.303 105.423 104.772 105.848 104.383C106.272 103.977 106.785 103.773 107.386 103.773ZM126.408 107.99H123.253V106.147C122.839 106.652 122.354 107.063 121.795 107.38C120.858 107.91 119.779 108.175 118.56 108.175C117.198 108.175 115.969 107.874 114.873 107.273C113.795 106.654 112.946 105.806 112.327 104.728C111.708 103.65 111.399 102.376 111.399 100.909C111.399 99.4416 111.708 98.1688 112.327 97.0905C112.946 96.012 113.795 95.172 114.873 94.5709C115.969 93.9698 117.198 93.6696 118.56 93.6696C119.744 93.6696 120.804 93.9351 121.741 94.4655C122.261 94.7497 122.72 95.1182 123.12 95.5709V88.3131H126.408V107.99ZM136.924 93.6696C138.303 93.6696 139.532 93.9698 140.61 94.5709C141.689 95.172 142.537 96.0209 143.155 97.1168C143.774 98.2129 144.084 99.5039 144.084 100.989C144.084 101.13 144.075 101.289 144.058 101.465C144.058 101.642 144.049 101.81 144.031 101.969H132.92C133.011 102.459 133.179 102.91 133.424 103.322C133.813 103.976 134.36 104.48 135.067 104.834C135.774 105.187 136.588 105.364 137.507 105.364C138.302 105.364 139.019 105.24 139.655 104.993C140.292 104.745 140.858 104.356 141.353 103.826L143.129 105.868C142.492 106.61 141.688 107.185 140.716 107.591C139.761 107.98 138.665 108.175 137.428 108.175C135.854 108.175 134.476 107.865 133.291 107.247C132.124 106.61 131.214 105.744 130.56 104.648C129.923 103.552 129.604 102.305 129.604 100.909C129.605 99.4946 129.914 98.2479 130.533 97.1696C131.17 96.0737 132.036 95.216 133.132 94.5973C134.246 93.9786 135.51 93.6696 136.924 93.6696ZM28.7744 96.8248C28.633 96.7895 28.4997 96.7721 28.376 96.7721C28.2523 96.7544 28.1285 96.7457 28.0049 96.7457C26.75 96.7458 25.7512 97.1168 25.0088 97.859C24.2663 98.5838 23.8946 99.6713 23.8945 101.121V107.99H20.5801V93.8287H23.7354V95.902C24.1422 95.2777 24.6815 94.7807 25.3535 94.4117C26.2728 93.9169 27.4133 93.6696 28.7744 93.6696V96.8248ZM55.9883 93.6696C57.1195 93.6696 58.1269 93.8908 59.0107 94.3326C59.9124 94.7746 60.6201 95.4553 61.1328 96.3746C61.6454 97.2762 61.9013 98.4428 61.9014 99.8746V107.99H58.5869V100.299C58.5869 99.0442 58.2866 98.1067 57.6855 97.4879C57.1021 96.8692 56.2795 96.5602 55.2188 96.5602C54.441 96.5602 53.7514 96.7195 53.1504 97.0377C52.5495 97.3559 52.081 97.833 51.7451 98.4694C51.4269 99.0881 51.2676 99.8751 51.2676 100.83V107.99H47.9531V93.8287H51.1084V95.6686C51.5392 95.1539 52.0685 94.7335 52.7002 94.4117C53.6548 93.9169 54.7509 93.6696 55.9883 93.6696ZM87.627 104.285L91.5342 93.8287H94.3184L98.1279 104.321L101.982 93.8287H104.926L99.7021 107.99H96.5195L92.8682 98.2301L89.1475 107.99H85.9658L80.7676 93.8287H83.8975L87.627 104.285ZM152.539 104.325L157.086 93.8287H160.269L154.195 107.99H150.774L144.702 93.8287H148.149L152.539 104.325ZM9.87793 96.4801C9.08266 96.4802 8.36673 96.657 7.73047 97.0104C7.09412 97.3639 6.58999 97.8768 6.21875 98.5485C5.84752 99.2025 5.66214 99.9896 5.66211 100.909C5.66211 101.81 5.84752 102.597 6.21875 103.269C6.59001 103.941 7.09402 104.454 7.73047 104.807C8.36678 105.161 9.08258 105.337 9.87793 105.338C10.6735 105.338 11.3812 105.161 12 104.807C12.6364 104.454 13.1405 103.941 13.5117 103.269C13.8829 102.597 14.0684 101.81 14.0684 100.909C14.0683 99.9896 13.8829 99.2025 13.5117 98.5485C13.1405 97.8768 12.6364 97.3639 12 97.0104C11.3813 96.6568 10.6734 96.4801 9.87793 96.4801ZM72.5234 96.4801C71.7105 96.4801 70.9859 96.657 70.3496 97.0104C69.731 97.3639 69.2355 97.8769 68.8643 98.5485C68.493 99.2025 68.3076 99.9896 68.3076 100.909C68.3076 101.81 68.493 102.597 68.8643 103.269C69.2355 103.941 69.7309 104.454 70.3496 104.807C70.9859 105.161 71.7017 105.338 72.4971 105.338C73.3103 105.338 74.0354 105.161 74.6719 104.807C75.3082 104.454 75.8027 103.941 76.1562 103.269C76.5275 102.597 76.7139 101.81 76.7139 100.909C76.7138 99.9896 76.5275 99.2025 76.1562 98.5485C75.8027 97.8769 75.3082 97.3639 74.6719 97.0104C74.0354 96.6568 73.319 96.4801 72.5234 96.4801ZM118.957 96.4801C118.161 96.4801 117.445 96.6568 116.809 97.0104C116.19 97.3639 115.687 97.8769 115.298 98.5485C114.927 99.2025 114.74 99.9896 114.74 100.909C114.74 101.81 114.927 102.597 115.298 103.269C115.687 103.941 116.19 104.454 116.809 104.807C117.445 105.161 118.161 105.338 118.957 105.338C119.752 105.338 120.459 105.161 121.078 104.807C121.715 104.454 122.219 103.941 122.59 103.269C122.979 102.597 123.174 101.81 123.174 100.909C123.174 99.9896 122.979 99.2025 122.59 98.5485C122.219 97.8769 121.714 97.3639 121.078 97.0104C120.459 96.657 119.752 96.4801 118.957 96.4801ZM37.6094 96.3209C36.7961 96.3209 36.0797 96.4986 35.4609 96.8522C34.86 97.2057 34.3828 97.7003 34.0293 98.3365C33.7994 98.7601 33.6497 99.2379 33.5771 99.7692H41.6318C41.5675 99.2343 41.4122 98.7478 41.1621 98.3102C40.8086 97.6916 40.3226 97.2057 39.7041 96.8522C39.1031 96.4987 38.4047 96.321 37.6094 96.3209ZM136.924 96.3209C136.111 96.3209 135.395 96.4987 134.776 96.8522C134.175 97.2057 133.697 97.7001 133.344 98.3365C133.114 98.7601 132.965 99.238 132.893 99.7692H140.947C140.883 99.2343 140.728 98.7478 140.478 98.3102C140.124 97.6914 139.637 97.2058 139.019 96.8522C138.417 96.4986 137.719 96.3209 136.924 96.3209ZM25.5762 4.04456C25.5734 4.07967 24.1091 22.4886 25.5762 34.1676V34.3151C27.2164 32.048 29.1835 30.1099 31.3936 28.5983C31.3333 28.6198 31.2729 28.6415 31.2129 28.6637C32.0531 28.0998 32.9376 27.5901 33.8643 27.1393C35.3468 26.3943 36.9122 25.8294 38.54 25.4684C40.4403 25.0112 42.4699 24.7692 44.6182 24.7692C57.0169 24.7696 67.4902 36.6607 67.4902 51.0397C67.4901 65.4186 56.2562 77.3089 43.8574 77.3092C41.1993 77.3092 38.6737 76.8399 36.3311 75.9811C32.0793 74.5043 28.3577 71.607 25.5762 67.7623V67.9889C24.606 70.8006 24.9341 74.3155 25.5762 76.9449H15.0859V9.27795L25.5762 4.04456ZM89.4463 62.7389L93.8721 77.3092H88.7578C84.6704 67.3029 81.4661 59.4598 78.2764 51.651L89.4463 62.7389ZM152.097 25.2379C151.982 25.5178 151.545 27.3206 149.5 28.9606C144.767 32.7559 142.236 36.4071 140.29 41.1715C135.47 52.9707 131.416 62.896 125.528 77.3092H118.617L112.682 58.7233L118.965 52.486L123.065 68.5768L136.229 25.2379H152.097ZM42.4414 28.4772C34.1338 31.2449 28.042 40.2983 28.042 51.0397C28.0421 61.7807 34.134 70.8326 42.4414 73.6002C50.7494 70.833 56.8417 61.7812 56.8418 51.0397C56.8418 40.2979 50.7496 31.2444 42.4414 28.4772ZM103.707 39.1149L95.7344 71.8678L92.9805 62.4166L100.167 30.1324L103.707 39.1149ZM116.778 51.2574L109.818 58.1656V54.6188L113.085 51.3766L109.818 48.1334V44.3483L116.778 51.2574ZM88.4697 48.2086L85.2705 51.3854L88.4697 54.5602V57.6266L88.2119 57.8834L81.5459 51.2662L88.4697 44.3922V48.2086ZM84.1328 45.2448L78.1045 51.2291C76.7572 47.9309 75.4095 44.6316 73.9961 41.1715C72.0499 36.4071 69.5196 32.7559 64.7861 28.9606C62.7408 27.3204 62.3036 25.5173 62.1895 25.2379H78.0566L84.1328 45.2448ZM118.443 50.442L106.251 38.4117L106.258 38.6071L102.055 25.4459H112.073L118.443 50.442Z"/>
</mask>
<path d="M5.71484 95.5621C6.11825 95.1135 6.57772 94.7479 7.09375 94.4655C8.04842 93.9351 9.10086 93.6696 10.25 93.6696C11.6464 93.6696 12.8749 93.97 13.9355 94.5709C15.014 95.172 15.8627 96.012 16.4814 97.0905C17.1178 98.1688 17.4365 99.4416 17.4365 100.909C17.4365 102.376 17.1179 103.65 16.4814 104.728C15.8627 105.806 15.0138 106.654 13.9355 107.273C12.8749 107.874 11.6465 108.175 10.25 108.175C9.04785 108.175 7.97799 107.91 7.04102 107.38C6.47465 107.059 5.97993 106.641 5.55566 106.127V107.99H2.40039V88.3131H5.71484V95.5621ZM37.6094 93.6696C38.9881 93.6696 40.2167 93.97 41.2949 94.5709C42.3733 95.172 43.2221 96.0207 43.8408 97.1168C44.4596 98.2129 44.7686 99.5039 44.7686 100.989C44.7685 101.13 44.7598 101.289 44.7422 101.465C44.7422 101.642 44.7335 101.81 44.7158 101.969H33.6055C33.6961 102.459 33.8633 102.91 34.1084 103.322C34.4973 103.976 35.0458 104.48 35.7529 104.834C36.46 105.187 37.2732 105.364 38.1924 105.364C38.9878 105.364 39.7035 105.24 40.3398 104.993C40.9763 104.745 41.5421 104.356 42.0371 103.826L43.8145 105.868C43.1781 106.61 42.3736 107.185 41.4014 107.591C40.4467 107.98 39.3498 108.175 38.1123 108.175C36.5391 108.175 35.16 107.865 33.9756 107.247C32.8089 106.61 31.8982 105.744 31.2441 104.648C30.6078 103.552 30.29 102.305 30.29 100.909C30.2901 99.4946 30.599 98.2479 31.2178 97.1696C31.8542 96.0736 32.7204 95.216 33.8164 94.5973C34.9302 93.9785 36.1951 93.6696 37.6094 93.6696ZM72.4971 93.6696C73.9644 93.6696 75.2641 93.9785 76.3955 94.5973C77.5445 95.216 78.4368 96.0649 79.0732 97.1432C79.7273 98.2215 80.0546 99.4769 80.0547 100.909C80.0547 102.305 79.7274 103.552 79.0732 104.648C78.4368 105.744 77.5445 106.61 76.3955 107.247C75.2641 107.865 73.9644 108.175 72.4971 108.175C71.0474 108.175 69.7564 107.865 68.625 107.247C67.4938 106.61 66.6013 105.744 65.9473 104.648C65.2931 103.552 64.9658 102.305 64.9658 100.909C64.9659 99.4946 65.2932 98.2479 65.9473 97.1696C66.6013 96.0737 67.4938 95.216 68.625 94.5973C69.7564 93.9785 71.0474 93.6696 72.4971 93.6696ZM107.386 103.773C107.987 103.773 108.5 103.977 108.924 104.383C109.348 104.772 109.561 105.303 109.561 105.974C109.561 106.611 109.348 107.141 108.924 107.565C108.5 107.972 107.987 108.175 107.386 108.175C106.785 108.175 106.272 107.972 105.848 107.565C105.423 107.141 105.211 106.611 105.211 105.974C105.211 105.303 105.423 104.772 105.848 104.383C106.272 103.977 106.785 103.773 107.386 103.773ZM126.408 107.99H123.253V106.147C122.839 106.652 122.354 107.063 121.795 107.38C120.858 107.91 119.779 108.175 118.56 108.175C117.198 108.175 115.969 107.874 114.873 107.273C113.795 106.654 112.946 105.806 112.327 104.728C111.708 103.65 111.399 102.376 111.399 100.909C111.399 99.4416 111.708 98.1688 112.327 97.0905C112.946 96.012 113.795 95.172 114.873 94.5709C115.969 93.9698 117.198 93.6696 118.56 93.6696C119.744 93.6696 120.804 93.9351 121.741 94.4655C122.261 94.7497 122.72 95.1182 123.12 95.5709V88.3131H126.408V107.99ZM136.924 93.6696C138.303 93.6696 139.532 93.9698 140.61 94.5709C141.689 95.172 142.537 96.0209 143.155 97.1168C143.774 98.2129 144.084 99.5039 144.084 100.989C144.084 101.13 144.075 101.289 144.058 101.465C144.058 101.642 144.049 101.81 144.031 101.969H132.92C133.011 102.459 133.179 102.91 133.424 103.322C133.813 103.976 134.36 104.48 135.067 104.834C135.774 105.187 136.588 105.364 137.507 105.364C138.302 105.364 139.019 105.24 139.655 104.993C140.292 104.745 140.858 104.356 141.353 103.826L143.129 105.868C142.492 106.61 141.688 107.185 140.716 107.591C139.761 107.98 138.665 108.175 137.428 108.175C135.854 108.175 134.476 107.865 133.291 107.247C132.124 106.61 131.214 105.744 130.56 104.648C129.923 103.552 129.604 102.305 129.604 100.909C129.605 99.4946 129.914 98.2479 130.533 97.1696C131.17 96.0737 132.036 95.216 133.132 94.5973C134.246 93.9786 135.51 93.6696 136.924 93.6696ZM28.7744 96.8248C28.633 96.7895 28.4997 96.7721 28.376 96.7721C28.2523 96.7544 28.1285 96.7457 28.0049 96.7457C26.75 96.7458 25.7512 97.1168 25.0088 97.859C24.2663 98.5838 23.8946 99.6713 23.8945 101.121V107.99H20.5801V93.8287H23.7354V95.902C24.1422 95.2777 24.6815 94.7807 25.3535 94.4117C26.2728 93.9169 27.4133 93.6696 28.7744 93.6696V96.8248ZM55.9883 93.6696C57.1195 93.6696 58.1269 93.8908 59.0107 94.3326C59.9124 94.7746 60.6201 95.4553 61.1328 96.3746C61.6454 97.2762 61.9013 98.4428 61.9014 99.8746V107.99H58.5869V100.299C58.5869 99.0442 58.2866 98.1067 57.6855 97.4879C57.1021 96.8692 56.2795 96.5602 55.2188 96.5602C54.441 96.5602 53.7514 96.7195 53.1504 97.0377C52.5495 97.3559 52.081 97.833 51.7451 98.4694C51.4269 99.0881 51.2676 99.8751 51.2676 100.83V107.99H47.9531V93.8287H51.1084V95.6686C51.5392 95.1539 52.0685 94.7335 52.7002 94.4117C53.6548 93.9169 54.7509 93.6696 55.9883 93.6696ZM87.627 104.285L91.5342 93.8287H94.3184L98.1279 104.321L101.982 93.8287H104.926L99.7021 107.99H96.5195L92.8682 98.2301L89.1475 107.99H85.9658L80.7676 93.8287H83.8975L87.627 104.285ZM152.539 104.325L157.086 93.8287H160.269L154.195 107.99H150.774L144.702 93.8287H148.149L152.539 104.325ZM9.87793 96.4801C9.08266 96.4802 8.36673 96.657 7.73047 97.0104C7.09412 97.3639 6.58999 97.8768 6.21875 98.5485C5.84752 99.2025 5.66214 99.9896 5.66211 100.909C5.66211 101.81 5.84752 102.597 6.21875 103.269C6.59001 103.941 7.09402 104.454 7.73047 104.807C8.36678 105.161 9.08258 105.337 9.87793 105.338C10.6735 105.338 11.3812 105.161 12 104.807C12.6364 104.454 13.1405 103.941 13.5117 103.269C13.8829 102.597 14.0684 101.81 14.0684 100.909C14.0683 99.9896 13.8829 99.2025 13.5117 98.5485C13.1405 97.8768 12.6364 97.3639 12 97.0104C11.3813 96.6568 10.6734 96.4801 9.87793 96.4801ZM72.5234 96.4801C71.7105 96.4801 70.9859 96.657 70.3496 97.0104C69.731 97.3639 69.2355 97.8769 68.8643 98.5485C68.493 99.2025 68.3076 99.9896 68.3076 100.909C68.3076 101.81 68.493 102.597 68.8643 103.269C69.2355 103.941 69.7309 104.454 70.3496 104.807C70.9859 105.161 71.7017 105.338 72.4971 105.338C73.3103 105.338 74.0354 105.161 74.6719 104.807C75.3082 104.454 75.8027 103.941 76.1562 103.269C76.5275 102.597 76.7139 101.81 76.7139 100.909C76.7138 99.9896 76.5275 99.2025 76.1562 98.5485C75.8027 97.8769 75.3082 97.3639 74.6719 97.0104C74.0354 96.6568 73.319 96.4801 72.5234 96.4801ZM118.957 96.4801C118.161 96.4801 117.445 96.6568 116.809 97.0104C116.19 97.3639 115.687 97.8769 115.298 98.5485C114.927 99.2025 114.74 99.9896 114.74 100.909C114.74 101.81 114.927 102.597 115.298 103.269C115.687 103.941 116.19 104.454 116.809 104.807C117.445 105.161 118.161 105.338 118.957 105.338C119.752 105.338 120.459 105.161 121.078 104.807C121.715 104.454 122.219 103.941 122.59 103.269C122.979 102.597 123.174 101.81 123.174 100.909C123.174 99.9896 122.979 99.2025 122.59 98.5485C122.219 97.8769 121.714 97.3639 121.078 97.0104C120.459 96.657 119.752 96.4801 118.957 96.4801ZM37.6094 96.3209C36.7961 96.3209 36.0797 96.4986 35.4609 96.8522C34.86 97.2057 34.3828 97.7003 34.0293 98.3365C33.7994 98.7601 33.6497 99.2379 33.5771 99.7692H41.6318C41.5675 99.2343 41.4122 98.7478 41.1621 98.3102C40.8086 97.6916 40.3226 97.2057 39.7041 96.8522C39.1031 96.4987 38.4047 96.321 37.6094 96.3209ZM136.924 96.3209C136.111 96.3209 135.395 96.4987 134.776 96.8522C134.175 97.2057 133.697 97.7001 133.344 98.3365C133.114 98.7601 132.965 99.238 132.893 99.7692H140.947C140.883 99.2343 140.728 98.7478 140.478 98.3102C140.124 97.6914 139.637 97.2058 139.019 96.8522C138.417 96.4986 137.719 96.3209 136.924 96.3209ZM25.5762 4.04456C25.5734 4.07967 24.1091 22.4886 25.5762 34.1676V34.3151C27.2164 32.048 29.1835 30.1099 31.3936 28.5983C31.3333 28.6198 31.2729 28.6415 31.2129 28.6637C32.0531 28.0998 32.9376 27.5901 33.8643 27.1393C35.3468 26.3943 36.9122 25.8294 38.54 25.4684C40.4403 25.0112 42.4699 24.7692 44.6182 24.7692C57.0169 24.7696 67.4902 36.6607 67.4902 51.0397C67.4901 65.4186 56.2562 77.3089 43.8574 77.3092C41.1993 77.3092 38.6737 76.8399 36.3311 75.9811C32.0793 74.5043 28.3577 71.607 25.5762 67.7623V67.9889C24.606 70.8006 24.9341 74.3155 25.5762 76.9449H15.0859V9.27795L25.5762 4.04456ZM89.4463 62.7389L93.8721 77.3092H88.7578C84.6704 67.3029 81.4661 59.4598 78.2764 51.651L89.4463 62.7389ZM152.097 25.2379C151.982 25.5178 151.545 27.3206 149.5 28.9606C144.767 32.7559 142.236 36.4071 140.29 41.1715C135.47 52.9707 131.416 62.896 125.528 77.3092H118.617L112.682 58.7233L118.965 52.486L123.065 68.5768L136.229 25.2379H152.097ZM42.4414 28.4772C34.1338 31.2449 28.042 40.2983 28.042 51.0397C28.0421 61.7807 34.134 70.8326 42.4414 73.6002C50.7494 70.833 56.8417 61.7812 56.8418 51.0397C56.8418 40.2979 50.7496 31.2444 42.4414 28.4772ZM103.707 39.1149L95.7344 71.8678L92.9805 62.4166L100.167 30.1324L103.707 39.1149ZM116.778 51.2574L109.818 58.1656V54.6188L113.085 51.3766L109.818 48.1334V44.3483L116.778 51.2574ZM88.4697 48.2086L85.2705 51.3854L88.4697 54.5602V57.6266L88.2119 57.8834L81.5459 51.2662L88.4697 44.3922V48.2086ZM84.1328 45.2448L78.1045 51.2291C76.7572 47.9309 75.4095 44.6316 73.9961 41.1715C72.0499 36.4071 69.5196 32.7559 64.7861 28.9606C62.7408 27.3204 62.3036 25.5173 62.1895 25.2379H78.0566L84.1328 45.2448ZM118.443 50.442L106.251 38.4117L106.258 38.6071L102.055 25.4459H112.073L118.443 50.442Z" fill="#D9D9D9"/>
<path d="M5.71484 95.5621H3.31437V101.822L7.49983 97.1672L5.71484 95.5621ZM7.09375 94.4655L8.24616 96.5712L8.25285 96.5676L8.25952 96.5639L7.09375 94.4655ZM10.25 93.6696L10.2501 91.2691H10.25V93.6696ZM13.9355 94.5709L12.7522 96.6594L12.7595 96.6636L12.7669 96.6677L13.9355 94.5709ZM16.4814 97.0905L14.3994 98.2851L14.4067 98.2978L14.4141 98.3105L16.4814 97.0905ZM17.4365 100.909H19.837V100.909L17.4365 100.909ZM16.4814 104.728L14.4141 103.508L14.4067 103.521L14.3994 103.533L16.4814 104.728ZM13.9355 107.273L15.119 109.362L15.1302 109.355L13.9355 107.273ZM10.25 108.175V110.576H10.2501L10.25 108.175ZM7.04102 107.38L5.85855 109.469L5.85856 109.469L7.04102 107.38ZM5.55566 106.127L7.40748 104.599L3.15519 99.4438V106.127H5.55566ZM5.55566 107.99V110.39H7.95614V107.99H5.55566ZM2.40039 107.99H-8.51154e-05V110.39H2.40039V107.99ZM2.40039 88.3131V85.9126H-8.51154e-05V88.3131H2.40039ZM5.71484 88.3131H8.11532V85.9126H5.71484V88.3131ZM37.6094 93.6696L37.6095 91.2691H37.6094V93.6696ZM41.2949 94.5709L42.4636 92.4742L42.4636 92.4741L41.2949 94.5709ZM43.8408 97.1168L45.9312 95.9368L45.9312 95.9368L43.8408 97.1168ZM44.7686 100.989L47.169 100.989V100.989H44.7686ZM44.7422 101.465L42.3536 101.227L42.3417 101.346V101.465H44.7422ZM44.7158 101.969V104.37H46.8646L47.1016 102.234L44.7158 101.969ZM33.6055 101.969V99.5689H30.7198L31.2451 102.406L33.6055 101.969ZM34.1084 103.322L32.045 104.549L32.0451 104.549L34.1084 103.322ZM35.7529 104.834L34.6794 106.981L34.6795 106.981L35.7529 104.834ZM38.1924 105.364V107.764H38.1924L38.1924 105.364ZM40.3398 104.993L41.2097 107.23L41.2099 107.23L40.3398 104.993ZM42.0371 103.826L43.8478 102.25L42.0994 100.241L40.2822 102.188L42.0371 103.826ZM43.8145 105.868L45.637 107.43L46.9864 105.856L45.6251 104.292L43.8145 105.868ZM41.4014 107.591L42.3071 109.814L42.3173 109.81L42.3276 109.806L41.4014 107.591ZM38.1123 108.175L38.1122 110.576H38.1123V108.175ZM33.9756 107.247L32.826 109.354L32.845 109.364L32.8641 109.374L33.9756 107.247ZM31.2441 104.648L29.1682 105.853L29.1754 105.866L29.1828 105.878L31.2441 104.648ZM30.29 100.909L27.8896 100.909V100.909H30.29ZM31.2178 97.1696L29.1419 95.9641L29.1357 95.9749L31.2178 97.1696ZM33.8164 94.5973L32.6506 92.4989L32.6435 92.5029L32.6363 92.5069L33.8164 94.5973ZM72.4971 93.6696V91.2691H72.4971L72.4971 93.6696ZM76.3955 94.5973L75.2437 96.7034L75.2506 96.7071L75.2574 96.7108L76.3955 94.5973ZM79.0732 97.1432L77.006 98.3634L77.0133 98.3758L77.0208 98.3881L79.0732 97.1432ZM80.0547 100.909H82.4552V100.909L80.0547 100.909ZM79.0732 104.648L77.0119 103.418L77.0046 103.43L76.9974 103.443L79.0732 104.648ZM76.3955 107.247L77.5473 109.353L77.5586 109.347L76.3955 107.247ZM72.4971 108.175L72.4971 110.576H72.4971V108.175ZM68.625 107.247L67.448 109.339L67.4606 109.346L67.4732 109.353L68.625 107.247ZM65.9473 104.648L63.8859 105.878L63.886 105.878L65.9473 104.648ZM64.9658 100.909L62.5653 100.909V100.909H64.9658ZM65.9473 97.1696L67.9997 98.4145L68.0041 98.4072L68.0085 98.3998L65.9473 97.1696ZM68.625 94.5973L67.4732 92.4912L67.4732 92.4912L68.625 94.5973ZM107.386 103.773L107.386 101.373H107.386V103.773ZM108.924 104.383L107.263 106.117L107.282 106.135L107.301 106.153L108.924 104.383ZM109.561 105.974L111.961 105.974V105.974H109.561ZM108.924 107.565L110.585 109.298L110.603 109.28L110.621 109.262L108.924 107.565ZM107.386 108.175V110.576H107.386L107.386 108.175ZM105.848 107.565L104.15 109.262L104.168 109.281L104.187 109.298L105.848 107.565ZM105.211 105.974H102.81V105.974L105.211 105.974ZM105.848 104.383L107.47 106.153L107.489 106.135L107.509 106.117L105.848 104.383ZM126.408 107.99V110.39H128.809V107.99H126.408ZM123.253 107.99H120.852V110.39H123.253V107.99ZM123.253 106.147H125.653V99.4358L121.397 104.625L123.253 106.147ZM121.795 107.38L122.977 109.469L122.978 109.468L121.795 107.38ZM118.56 108.175V110.576H118.56L118.56 108.175ZM114.873 107.273L113.678 109.355L113.698 109.367L113.719 109.378L114.873 107.273ZM112.327 104.728L110.245 105.923L110.245 105.923L112.327 104.728ZM111.399 100.909L108.999 100.909V100.909H111.399ZM112.327 97.0905L110.245 95.8958L110.245 95.8959L112.327 97.0905ZM114.873 94.5709L113.719 92.4661L113.712 92.4701L113.704 92.4742L114.873 94.5709ZM118.56 93.6696L118.56 91.2691H118.56V93.6696ZM121.741 94.4655L120.559 96.5545L120.574 96.563L120.589 96.5713L121.741 94.4655ZM123.12 95.5709L121.321 97.1602L125.521 101.914V95.5709H123.12ZM123.12 88.3131V85.9126H120.72V88.3131H123.12ZM126.408 88.3131H128.809V85.9126H126.408V88.3131ZM136.924 93.6696V91.2691H136.924L136.924 93.6696ZM140.61 94.5709L141.779 92.4742L141.779 92.4742L140.61 94.5709ZM143.155 97.1168L145.246 95.9368L145.246 95.9367L143.155 97.1168ZM144.084 100.989L146.484 100.989V100.989H144.084ZM144.058 101.465L141.669 101.227L141.657 101.346V101.465H144.058ZM144.031 101.969V104.37H146.18L146.417 102.234L144.031 101.969ZM132.92 101.969V99.5689H130.034L130.56 102.406L132.92 101.969ZM133.424 103.322L131.361 104.549L131.361 104.549L133.424 103.322ZM135.067 104.834L133.994 106.981L133.994 106.981L135.067 104.834ZM137.507 105.364L137.507 107.764H137.507V105.364ZM139.655 104.993L140.525 107.23H140.525L139.655 104.993ZM141.353 103.826L143.164 102.25L141.415 100.24L139.598 102.188L141.353 103.826ZM143.129 105.868L144.951 107.43L146.3 105.856L144.94 104.292L143.129 105.868ZM140.716 107.591L141.621 109.815L141.632 109.81L141.642 109.806L140.716 107.591ZM137.428 108.175V110.576V108.175ZM133.291 107.247L132.142 109.354L132.16 109.364L132.18 109.374L133.291 107.247ZM130.56 104.648L128.484 105.853L128.491 105.866L128.498 105.878L130.56 104.648ZM129.604 100.909L127.204 100.909V100.909H129.604ZM130.533 97.1696L128.457 95.964L128.451 95.9749L130.533 97.1696ZM133.132 94.5973L131.966 92.4989L131.959 92.5029L131.952 92.5069L133.132 94.5973ZM28.7744 96.8248L28.1922 99.1536L31.1749 99.8993V96.8248H28.7744ZM28.376 96.7721L28.0368 99.1485L28.2055 99.1726H28.376V96.7721ZM28.0049 96.7457V94.3453H28.0048L28.0049 96.7457ZM25.0088 97.859L26.6856 99.5767L26.6958 99.5667L26.7059 99.5566L25.0088 97.859ZM23.8945 101.121L21.4941 101.121V101.121H23.8945ZM23.8945 107.99V110.39H26.295V107.99H23.8945ZM20.5801 107.99H18.1796V110.39H20.5801V107.99ZM20.5801 93.8287V91.4283H18.1796V93.8287H20.5801ZM23.7354 93.8287H26.1358V91.4283H23.7354V93.8287ZM23.7354 95.902H21.3349V103.982L25.7464 97.2127L23.7354 95.902ZM25.3535 94.4117L24.2156 92.2981L24.2069 92.3028L24.1983 92.3075L25.3535 94.4117ZM28.7744 93.6696H31.1749V91.2691H28.7744V93.6696ZM55.9883 93.6696L55.9883 91.2691H55.9883V93.6696ZM59.0107 94.3326L57.9373 96.4798L57.9457 96.4839L57.9542 96.4881L59.0107 94.3326ZM61.1328 96.3746L59.0363 97.5438L59.0411 97.5525L59.046 97.5611L61.1328 96.3746ZM61.9014 99.8746H64.3018V99.8746L61.9014 99.8746ZM61.9014 107.99V110.39H64.3018V107.99H61.9014ZM58.5869 107.99H56.1864V110.39H58.5869V107.99ZM57.6855 97.4879L55.939 99.1347L55.9513 99.1477L55.9637 99.1605L57.6855 97.4879ZM55.2188 96.5602V94.1597H55.2186L55.2188 96.5602ZM53.1504 97.0377L52.0272 94.9162L52.027 94.9163L53.1504 97.0377ZM51.7451 98.4694L49.6222 97.3489L49.6162 97.3602L49.6104 97.3715L51.7451 98.4694ZM51.2676 107.99V110.39H53.6681V107.99H51.2676ZM47.9531 107.99H45.5527V110.39H47.9531V107.99ZM47.9531 93.8287V91.4283H45.5527V93.8287H47.9531ZM51.1084 93.8287H53.5089V91.4283H51.1084V93.8287ZM51.1084 95.6686H48.7079V102.276L52.9491 97.2094L51.1084 95.6686ZM52.7002 94.4117L53.7898 96.5507L53.7974 96.5468L53.805 96.5429L52.7002 94.4117ZM87.627 104.285L85.366 105.091L87.5745 111.283L89.8756 105.125L87.627 104.285ZM91.5342 93.8287V91.4283H89.8686L89.2856 92.9885L91.5342 93.8287ZM94.3184 93.8287L96.5747 93.0095L96.0006 91.4283H94.3184V93.8287ZM98.1279 104.321L95.8716 105.14L98.1147 111.318L100.381 105.149L98.1279 104.321ZM101.982 93.8287V91.4283H100.307L99.7292 93.001L101.982 93.8287ZM104.926 93.8287L107.178 94.6595L108.37 91.4283H104.926V93.8287ZM99.7021 107.99V110.39H101.375L101.954 108.821L99.7021 107.99ZM96.5195 107.99L94.2712 108.831L94.8546 110.39H96.5195V107.99ZM92.8682 98.2301L95.1164 97.389L92.8893 91.436L90.6252 97.375L92.8682 98.2301ZM89.1475 107.99V110.39H90.8013L91.3905 108.845L89.1475 107.99ZM85.9658 107.99L83.7124 108.817L84.2899 110.39H85.9658V107.99ZM80.7676 93.8287V91.4283H77.3293L78.5141 94.6559L80.7676 93.8287ZM83.8975 93.8287L86.1584 93.0223L85.5899 91.4283H83.8975V93.8287ZM152.539 104.325L150.324 105.251L152.5 110.453L154.742 105.279L152.539 104.325ZM157.086 93.8287V91.4283H155.51L154.883 92.8745L157.086 93.8287ZM160.269 93.8287L162.475 94.7749L163.91 91.4283H160.269V93.8287ZM154.195 107.99V110.39H155.778L156.401 108.936L154.195 107.99ZM150.774 107.99L148.568 108.936L149.192 110.39H150.774V107.99ZM144.702 93.8287V91.4283H141.061L142.496 94.7747L144.702 93.8287ZM148.149 93.8287L150.364 92.9025L149.747 91.4283H148.149V93.8287ZM9.87793 96.4801V94.0796H9.87771L9.87793 96.4801ZM7.73047 97.0104L6.56483 94.9119L6.56469 94.912L7.73047 97.0104ZM6.21875 98.5485L8.30641 99.7334L8.3131 99.7216L8.31966 99.7097L6.21875 98.5485ZM5.66211 100.909L3.26163 100.909V100.909H5.66211ZM6.21875 103.269L4.11773 104.43L4.11775 104.43L6.21875 103.269ZM7.73047 104.807L6.5647 106.906L6.56471 106.906L7.73047 104.807ZM9.87793 105.338L9.87771 107.738H9.87793V105.338ZM12 104.807L10.8342 102.709L10.8216 102.716L10.809 102.723L12 104.807ZM13.5117 103.269L15.6127 104.43L15.6128 104.43L13.5117 103.269ZM14.0684 100.909H16.4688V100.909L14.0684 100.909ZM13.5117 98.5485L11.4108 99.7097L11.4174 99.7215L11.4241 99.7333L13.5117 98.5485ZM12 97.0104L10.8091 99.0946L10.8216 99.1018L10.8342 99.1088L12 97.0104ZM72.5234 96.4801V94.0796H72.5233L72.5234 96.4801ZM70.3496 97.0104L69.1842 94.9118L69.1714 94.9189L69.1586 94.9262L70.3496 97.0104ZM68.8643 98.5485L70.9519 99.7334L70.9586 99.7216L70.9651 99.7097L68.8643 98.5485ZM68.3076 100.909L65.9071 100.909V100.909H68.3076ZM68.8643 103.269L66.7633 104.43L66.7633 104.43L68.8643 103.269ZM70.3496 104.807L69.1586 106.891L69.1713 106.899L69.184 106.906L70.3496 104.807ZM72.4971 105.338L72.497 107.738H72.4971V105.338ZM74.6719 104.807L75.8376 106.906L75.8378 106.906L74.6719 104.807ZM76.1562 103.269L74.0553 102.108L74.0434 102.129L74.0321 102.151L76.1562 103.269ZM76.7139 100.909H79.1143V100.909L76.7139 100.909ZM76.1562 98.5485L74.0322 99.6668L74.0499 99.7003L74.0686 99.7334L76.1562 98.5485ZM74.6719 97.0104L75.8376 94.912L75.8376 94.912L74.6719 97.0104ZM118.957 96.4801L118.957 94.0796H118.957V96.4801ZM116.809 97.0104L115.643 94.912L115.63 94.919L115.618 94.9262L116.809 97.0104ZM115.298 98.5485L113.221 97.3455L113.215 97.3545L113.21 97.3636L115.298 98.5485ZM114.74 100.909L112.34 100.909V100.909H114.74ZM115.298 103.269L113.197 104.43L113.208 104.451L113.22 104.472L115.298 103.269ZM116.809 104.807L115.617 106.891L115.63 106.899L115.643 106.906L116.809 104.807ZM118.957 105.338V107.738H118.957L118.957 105.338ZM121.078 104.807L119.912 102.709L119.9 102.716L119.887 102.723L121.078 104.807ZM122.59 103.269L120.512 102.066L120.5 102.087L120.489 102.108L122.59 103.269ZM123.174 100.909H125.574V100.909L123.174 100.909ZM122.59 98.5485L120.489 99.7097L120.507 99.7428L120.527 99.7753L122.59 98.5485ZM121.078 97.0104L119.887 99.0947L119.9 99.1018L119.912 99.1088L121.078 97.0104ZM37.6094 96.3209L37.6096 93.9204H37.6094V96.3209ZM35.4609 96.8522L34.27 94.768L34.2568 94.7755L34.2437 94.7832L35.4609 96.8522ZM34.0293 98.3365L31.931 97.1706L31.9253 97.1809L31.9196 97.1913L34.0293 98.3365ZM33.5771 99.7692L31.1987 99.4444L30.8266 102.17H33.5771V99.7692ZM41.6318 99.7692V102.17H44.3385L44.0151 99.4823L41.6318 99.7692ZM41.1621 98.3102L43.2463 97.1192L43.2463 97.1191L41.1621 98.3102ZM39.7041 96.8522L38.487 98.9212L38.4999 98.9288L38.5129 98.9362L39.7041 96.8522ZM136.924 96.3209V93.9204H136.924L136.924 96.3209ZM134.776 96.8522L133.586 94.7679L133.572 94.7754L133.559 94.7831L134.776 96.8522ZM133.344 98.3365L131.245 97.1707L131.24 97.181L131.234 97.1913L133.344 98.3365ZM132.893 99.7692L130.514 99.4444L130.142 102.17H132.893V99.7692ZM140.947 99.7692V102.17H143.654L143.331 99.4824L140.947 99.7692ZM140.478 98.3102L142.562 97.1192L142.562 97.1192L140.478 98.3102ZM139.019 96.8522L137.801 98.9212L137.814 98.9289L137.828 98.9364L139.019 96.8522ZM25.5762 4.04456L27.9691 4.23505L28.3062 -3.19481e-05L24.5046 1.89655L25.5762 4.04456ZM25.5762 34.1676H27.9766V34.0174L27.9579 33.8684L25.5762 34.1676ZM25.5762 34.3151H23.1757V41.7282L27.521 35.7221L25.5762 34.3151ZM31.3936 28.5983L32.7488 30.5796L30.5864 26.3376L31.3936 28.5983ZM31.2129 28.6637L29.8751 26.6706L32.045 30.9153L31.2129 28.6637ZM33.8643 27.1393L34.9144 29.2979L34.9283 29.2911L34.9421 29.2842L33.8643 27.1393ZM38.54 25.4684L39.0598 27.8119L39.0807 27.8073L39.1015 27.8023L38.54 25.4684ZM44.6182 24.7692L44.6182 22.3687H44.6181L44.6182 24.7692ZM67.4902 51.0397L69.8907 51.0397V51.0397H67.4902ZM43.8574 77.3092L43.8574 79.7097H43.8575L43.8574 77.3092ZM36.3311 75.9811L37.1573 73.7273L37.138 73.7202L37.1187 73.7135L36.3311 75.9811ZM25.5762 67.7623L27.521 66.3553L23.1757 60.349V67.7623H25.5762ZM25.5762 67.9889L27.8454 68.7719L27.9766 68.3914V67.9889H25.5762ZM25.5762 76.9449V79.3454H28.6334L27.9081 76.3755L25.5762 76.9449ZM15.0859 76.9449H12.6855V79.3454H15.0859V76.9449ZM15.0859 9.27795L14.0143 7.12994L12.6855 7.7929V9.27795H15.0859ZM89.4463 62.7389L91.7431 62.0412L91.5672 61.4618L91.1374 61.0353L89.4463 62.7389ZM93.8721 77.3092V79.7097H97.11L96.1689 76.6115L93.8721 77.3092ZM88.7578 77.3092L86.5356 78.2169L87.1453 79.7097H88.7578V77.3092ZM78.2764 51.651L79.9675 49.9474L76.0541 52.5587L78.2764 51.651ZM152.097 25.2379L154.319 26.145L155.669 22.8374H152.097V25.2379ZM149.5 28.9606L151.002 30.8334L151.002 30.8333L149.5 28.9606ZM140.29 41.1715L138.068 40.2638V40.2638L140.29 41.1715ZM125.528 77.3092V79.7097H127.141L127.751 78.2169L125.528 77.3092ZM118.617 77.3092L116.33 78.0395L116.864 79.7097H118.617V77.3092ZM112.682 58.7233L110.99 57.0197L109.948 58.0544L110.395 59.4535L112.682 58.7233ZM118.965 52.486L121.291 51.8932L120.254 47.8239L117.274 50.7824L118.965 52.486ZM123.065 68.5768L120.739 69.1696L122.863 77.5028L125.362 69.2744L123.065 68.5768ZM136.229 25.2379V22.8374H134.45L133.933 24.5403L136.229 25.2379ZM42.4414 28.4772L43.2 26.1997L42.4413 25.947L41.6827 26.1998L42.4414 28.4772ZM28.042 51.0397H25.6415V51.0397L28.042 51.0397ZM42.4414 73.6002L41.6827 75.8776L42.4413 76.1304L43.2 75.8777L42.4414 73.6002ZM56.8418 51.0397L59.2423 51.0397V51.0397H56.8418ZM103.707 39.1149L106.039 39.6826L106.219 38.943L105.94 38.2347L103.707 39.1149ZM95.7344 71.8678L93.4297 72.5393L95.9424 81.1626L98.0667 72.4355L95.7344 71.8678ZM92.9805 62.4166L90.6373 61.895L90.5034 62.4965L90.6758 63.0882L92.9805 62.4166ZM100.167 30.1324L102.4 29.2523L99.5267 21.961L97.8239 29.6109L100.167 30.1324ZM116.778 51.2574L118.469 52.9612L120.186 51.2576L118.469 49.5538L116.778 51.2574ZM109.818 58.1656H107.418V63.9305L111.509 59.8694L109.818 58.1656ZM109.818 54.6188L108.127 52.915L107.418 53.6192V54.6188H109.818ZM113.085 51.3766L114.776 53.0803L116.492 51.3768L114.776 49.6731L113.085 51.3766ZM109.818 48.1334H107.418V49.1328L108.127 49.8369L109.818 48.1334ZM109.818 44.3483L111.51 42.6447L107.418 38.5829V44.3483H109.818ZM88.4697 48.2086L90.1611 49.912L90.8702 49.2079V48.2086H88.4697ZM85.2705 51.3854L83.5791 49.682L81.8632 51.3859L83.5796 53.0893L85.2705 51.3854ZM88.4697 54.5602H90.8702V53.5605L90.1606 52.8563L88.4697 54.5602ZM88.4697 57.6266L90.1639 59.3272L90.8702 58.6236V57.6266H88.4697ZM88.2119 57.8834L86.5208 59.587L88.2149 61.2688L89.9061 59.584L88.2119 57.8834ZM81.5459 51.2662L79.8546 49.5627L78.1387 51.2663L79.8548 52.9699L81.5459 51.2662ZM88.4697 44.3922H90.8702V38.6264L86.7785 42.6887L88.4697 44.3922ZM84.1328 45.2448L85.824 46.9483L86.8497 45.9301L86.4297 44.5472L84.1328 45.2448ZM78.1045 51.2291L75.8823 52.1369L77.2426 55.4672L79.7957 52.9327L78.1045 51.2291ZM73.9961 41.1715L76.2183 40.2638L76.2183 40.2638L73.9961 41.1715ZM64.7861 28.9606L63.2844 30.8333L63.2845 30.8334L64.7861 28.9606ZM62.1895 25.2379V22.8374H58.616L59.9672 26.1456L62.1895 25.2379ZM78.0566 25.2379L80.3535 24.5403L79.8363 22.8374H78.0566V25.2379ZM118.443 50.442L116.757 52.1507L122.901 58.2125L120.769 49.8492L118.443 50.442ZM106.251 38.4117L107.937 36.703L103.641 32.464L103.852 38.4957L106.251 38.4117ZM106.258 38.6071L103.971 39.3373L108.657 38.5231L106.258 38.6071ZM102.055 25.4459V23.0454H98.7682L99.768 26.1762L102.055 25.4459ZM112.073 25.4459L114.399 24.8531L113.939 23.0454H112.073V25.4459ZM5.71484 95.5621L7.49983 97.1672C7.72731 96.9142 7.97442 96.7199 8.24616 96.5712L7.09375 94.4655L5.94134 92.3597C5.18103 92.7758 4.5092 93.3128 3.92986 93.9571L5.71484 95.5621ZM7.09375 94.4655L8.25952 96.5639C8.83902 96.2419 9.48704 96.07 10.25 96.07V93.6696V91.2691C8.71469 91.2691 7.25781 91.6283 5.92798 92.3671L7.09375 94.4655ZM10.25 93.6696L10.2499 96.07C11.2929 96.0701 12.1023 96.2912 12.7522 96.6594L13.9355 94.5709L15.1189 92.4824C13.6476 91.6487 11.9999 91.2691 10.2501 91.2691L10.25 93.6696ZM13.9355 94.5709L12.7669 96.6677C13.4616 97.0549 13.9958 97.5818 14.3994 98.2851L16.4814 97.0905L18.5635 95.8958C17.7295 94.4423 16.5663 93.2891 15.1042 92.4742L13.9355 94.5709ZM16.4814 97.0905L14.4141 98.3105C14.7977 98.9604 15.036 99.7968 15.036 100.909L17.4365 100.909L19.837 100.909C19.837 99.0863 19.438 97.3772 18.5488 95.8704L16.4814 97.0905ZM17.4365 100.909H15.036C15.036 102.021 14.7976 102.858 14.4141 103.508L16.4814 104.728L18.5488 105.948C19.4382 104.441 19.837 102.731 19.837 100.909H17.4365ZM16.4814 104.728L14.3994 103.533C13.993 104.242 13.4507 104.784 12.7409 105.191L13.9355 107.273L15.1302 109.355C16.577 108.525 17.7324 107.371 18.5635 105.923L16.4814 104.728ZM13.9355 107.273L12.7521 105.185C12.1012 105.553 11.2918 105.775 10.2499 105.775L10.25 108.175L10.2501 110.576C12.0012 110.576 13.6485 110.195 15.119 109.362L13.9355 107.273ZM10.25 108.175V105.775C9.4134 105.775 8.75952 105.594 8.22347 105.29L7.04102 107.38L5.85856 109.469C7.19647 110.226 8.68229 110.576 10.25 110.576V108.175ZM7.04102 107.38L8.22349 105.29C7.92068 105.119 7.65078 104.894 7.40748 104.599L5.55566 106.127L3.70385 107.654C4.30907 108.388 5.02862 108.999 5.85855 109.469L7.04102 107.38ZM5.55566 106.127H3.15519V107.99H5.55566H7.95614V106.127H5.55566ZM5.55566 107.99V105.589H2.40039V107.99V110.39H5.55566V107.99ZM2.40039 107.99H4.80087V88.3131H2.40039H-8.51154e-05V107.99H2.40039ZM2.40039 88.3131V90.7136H5.71484V88.3131V85.9126H2.40039V88.3131ZM5.71484 88.3131H3.31437V95.5621H5.71484H8.11532V88.3131H5.71484ZM37.6094 93.6696L37.6093 96.07C38.628 96.0701 39.4458 96.2885 40.1263 96.6677L41.2949 94.5709L42.4636 92.4741C40.9875 91.6515 39.3482 91.2692 37.6095 91.2691L37.6094 93.6696ZM41.2949 94.5709L40.1262 96.6677C40.8111 97.0494 41.3443 97.5774 41.7504 98.2969L43.8408 97.1168L45.9312 95.9368C45.0998 94.4641 43.9356 93.2946 42.4636 92.4742L41.2949 94.5709ZM43.8408 97.1168L41.7504 98.2969C42.1318 98.9725 42.3681 99.842 42.3681 100.989H44.7686H47.169C47.169 99.1657 46.7873 97.4533 45.9312 95.9368L43.8408 97.1168ZM44.7686 100.989L42.3681 100.989C42.3681 101.034 42.3651 101.112 42.3536 101.227L44.7422 101.465L47.1308 101.704C47.1545 101.466 47.169 101.226 47.169 100.989L44.7686 100.989ZM44.7422 101.465H42.3417C42.3417 101.564 42.3368 101.643 42.33 101.705L44.7158 101.969L47.1016 102.234C47.1301 101.978 47.1427 101.72 47.1427 101.465H44.7422ZM44.7158 101.969V99.5689H33.6055V101.969V104.37H44.7158V101.969ZM33.6055 101.969L31.2451 102.406C31.385 103.162 31.6487 103.882 32.045 104.549L34.1084 103.322L36.1718 102.095C36.078 101.937 36.0072 101.756 35.9658 101.532L33.6055 101.969ZM34.1084 103.322L32.0451 104.549C32.6786 105.614 33.5781 106.43 34.6794 106.981L35.7529 104.834L36.8265 102.687C36.5134 102.53 36.316 102.338 36.1717 102.095L34.1084 103.322ZM35.7529 104.834L34.6795 106.981C35.7702 107.526 36.9611 107.764 38.1924 107.764V105.364V102.963C37.5852 102.963 37.1499 102.848 36.8264 102.687L35.7529 104.834ZM38.1924 105.364L38.1924 107.764C39.237 107.764 40.2543 107.602 41.2097 107.23L40.3398 104.993L39.47 102.755C39.1527 102.879 38.7385 102.963 38.1924 102.963L38.1924 105.364ZM40.3398 104.993L41.2099 107.23C42.2036 106.844 43.0667 106.241 43.792 105.464L42.0371 103.826L40.2822 102.188C40.0175 102.472 39.7489 102.647 39.4698 102.756L40.3398 104.993ZM42.0371 103.826L40.2264 105.402L42.0038 107.444L43.8145 105.868L45.6251 104.292L43.8478 102.25L42.0371 103.826ZM43.8145 105.868L41.9919 104.306C41.618 104.742 41.1293 105.103 40.4751 105.377L41.4014 107.591L42.3276 109.806C43.6178 109.266 44.7381 108.479 45.637 107.43L43.8145 105.868ZM41.4014 107.591L40.4957 105.368C39.8795 105.619 39.0995 105.775 38.1123 105.775V108.175V110.576C39.6002 110.576 41.0139 110.341 42.3071 109.814L41.4014 107.591ZM38.1123 108.175L38.1124 105.775C36.8582 105.775 35.8728 105.53 35.087 105.119L33.9756 107.247L32.8641 109.374C34.4471 110.201 36.2199 110.576 38.1122 110.576L38.1123 108.175ZM33.9756 107.247L35.1252 105.139C34.3189 104.7 33.7301 104.129 33.3055 103.418L31.2441 104.648L29.1828 105.878C30.0663 107.359 31.299 108.521 32.826 109.354L33.9756 107.247ZM31.2441 104.648L33.3201 103.443C32.9178 102.75 32.6905 101.927 32.6905 100.909H30.29H27.8896C27.8896 102.684 28.2977 104.354 29.1682 105.853L31.2441 104.648ZM30.29 100.909L32.6905 100.909C32.6905 99.8545 32.9174 99.0308 33.2999 98.3642L31.2178 97.1696L29.1357 95.9749C28.2807 97.465 27.8896 99.1347 27.8896 100.909L30.29 100.909ZM31.2178 97.1696L33.2936 98.375C33.7172 97.6456 34.2754 97.0947 34.9965 96.6877L33.8164 94.5973L32.6363 92.5069C31.1654 93.3373 29.9912 94.5016 29.1419 95.9641L31.2178 97.1696ZM33.8164 94.5973L34.9822 96.6957C35.7007 96.2965 36.5564 96.07 37.6094 96.07V93.6696V91.2691C35.8337 91.2691 34.1597 91.6605 32.6506 92.4989L33.8164 94.5973ZM72.4971 93.6696V96.07C73.6187 96.07 74.5121 96.3033 75.2437 96.7034L76.3955 94.5973L77.5473 92.4912C76.016 91.6538 74.3102 91.2691 72.4971 91.2691V93.6696ZM76.3955 94.5973L75.2574 96.7108C76.0373 97.1308 76.6013 97.6777 77.006 98.3634L79.0732 97.1432L81.1405 95.923C80.2724 94.4522 79.0517 93.3012 77.5336 92.4837L76.3955 94.5973ZM79.0732 97.1432L77.0208 98.3881C77.4178 99.0426 77.6542 99.8555 77.6542 100.909L80.0547 100.909L82.4552 100.909C82.4551 99.0984 82.0369 97.4005 81.1257 95.8983L79.0732 97.1432ZM80.0547 100.909H77.6542C77.6542 101.914 77.4236 102.728 77.0119 103.418L79.0732 104.648L81.1346 105.878C82.0311 104.376 82.4552 102.697 82.4552 100.909H80.0547ZM79.0732 104.648L76.9974 103.443C76.5868 104.15 76.016 104.713 75.2324 105.147L76.3955 107.247L77.5586 109.347C79.073 108.508 80.2869 107.338 81.1491 105.853L79.0732 104.648ZM76.3955 107.247L75.2437 105.141C74.5112 105.541 73.6174 105.775 72.4971 105.775V108.175V110.576C74.3114 110.576 76.0169 110.19 77.5473 109.353L76.3955 107.247ZM72.4971 108.175L72.4971 105.775C71.3998 105.775 70.5135 105.543 69.7768 105.141L68.625 107.247L67.4732 109.353C68.9994 110.187 70.6951 110.576 72.4971 110.576L72.4971 108.175ZM68.625 107.247L69.802 105.155C69.0294 104.72 68.4444 104.148 68.0086 103.418L65.9473 104.648L63.886 105.878C64.7582 107.34 65.9581 108.501 67.448 109.339L68.625 107.247ZM65.9473 104.648L68.0086 103.418C67.5969 102.728 67.3663 101.914 67.3663 100.909H64.9658H62.5653C62.5653 102.697 62.9894 104.376 63.8859 105.878L65.9473 104.648ZM64.9658 100.909L67.3663 100.909C67.3663 99.8792 67.5999 99.0735 67.9997 98.4145L65.9473 97.1696L63.8948 95.9246C62.9864 97.4223 62.5654 99.11 62.5653 100.909L64.9658 100.909ZM65.9473 97.1696L68.0085 98.3998C68.441 97.6752 69.0179 97.1184 69.7768 96.7034L68.625 94.5973L67.4732 92.4912C65.9696 93.3135 64.7617 94.4722 63.886 95.9393L65.9473 97.1696ZM68.625 94.5973L69.7768 96.7034C70.5125 96.301 71.3985 96.07 72.4971 96.07L72.4971 93.6696L72.4971 91.2691C70.6963 91.2691 69.0004 91.656 67.4732 92.4912L68.625 94.5973ZM107.386 103.773L107.386 106.174C107.4 106.174 107.4 106.175 107.388 106.173C107.376 106.17 107.358 106.166 107.335 106.157C107.313 106.148 107.294 106.138 107.279 106.128C107.265 106.119 107.259 106.113 107.263 106.117L108.924 104.383L110.585 102.65C109.703 101.805 108.591 101.373 107.386 101.373L107.386 103.773ZM108.924 104.383L107.301 106.153C107.28 106.133 107.254 106.104 107.229 106.068C107.204 106.032 107.185 105.996 107.173 105.965C107.147 105.902 107.16 105.892 107.16 105.974H109.561H111.961C111.961 104.751 111.549 103.534 110.546 102.614L108.924 104.383ZM109.561 105.974L107.16 105.974C107.16 105.999 107.158 106.007 107.159 106.001C107.16 105.995 107.164 105.979 107.173 105.957C107.182 105.935 107.193 105.913 107.205 105.895C107.211 105.886 107.216 105.88 107.22 105.875C107.222 105.873 107.224 105.871 107.225 105.87C107.226 105.868 107.226 105.868 107.226 105.868L108.924 107.565L110.621 109.262C111.524 108.359 111.961 107.206 111.961 105.974L109.561 105.974ZM108.924 107.565L107.263 105.832C107.259 105.835 107.265 105.83 107.279 105.82C107.294 105.811 107.313 105.8 107.335 105.792C107.358 105.783 107.376 105.778 107.388 105.776C107.4 105.774 107.4 105.775 107.386 105.775L107.386 108.175L107.386 110.576C108.591 110.576 109.703 110.143 110.585 109.298L108.924 107.565ZM107.386 108.175V105.775C107.371 105.775 107.372 105.774 107.383 105.776C107.395 105.778 107.414 105.783 107.436 105.792C107.458 105.8 107.478 105.811 107.492 105.82C107.507 105.83 107.512 105.835 107.509 105.832L105.848 107.565L104.187 109.298C105.068 110.143 106.18 110.576 107.386 110.576V108.175ZM105.848 107.565L107.545 105.868C107.545 105.868 107.547 105.87 107.551 105.875C107.555 105.88 107.56 105.886 107.566 105.895C107.578 105.913 107.59 105.935 107.599 105.957C107.608 105.979 107.611 105.995 107.612 106.002C107.614 106.008 107.611 105.999 107.611 105.974L105.211 105.974L102.81 105.974C102.811 107.205 103.247 108.359 104.15 109.262L105.848 107.565ZM105.211 105.974H107.611C107.611 105.891 107.624 105.901 107.599 105.965C107.586 105.996 107.568 106.032 107.543 106.068C107.517 106.105 107.492 106.133 107.47 106.153L105.848 104.383L104.225 102.614C103.222 103.534 102.81 104.751 102.81 105.974H105.211ZM105.848 104.383L107.509 106.117C107.512 106.113 107.507 106.119 107.492 106.128C107.478 106.138 107.458 106.148 107.436 106.157C107.414 106.166 107.395 106.17 107.383 106.173C107.372 106.175 107.371 106.174 107.386 106.174V103.773V101.373C106.18 101.373 105.068 101.806 104.187 102.65L105.848 104.383ZM126.408 107.99V105.589H123.253V107.99V110.39H126.408V107.99ZM123.253 107.99H125.653V106.147H123.253H120.852V107.99H123.253ZM123.253 106.147L121.397 104.625C121.165 104.907 120.906 105.124 120.612 105.291L121.795 107.38L122.978 109.468C123.801 109.002 124.513 108.396 125.109 107.67L123.253 106.147ZM121.795 107.38L120.612 105.29C120.082 105.591 119.42 105.775 118.559 105.775L118.56 108.175L118.56 110.576C120.138 110.576 121.634 110.229 122.977 109.469L121.795 107.38ZM118.56 108.175V105.775C117.566 105.775 116.739 105.559 116.027 105.168L114.873 107.273L113.719 109.378C115.199 110.19 116.831 110.576 118.56 110.576V108.175ZM114.873 107.273L116.068 105.191C115.358 104.784 114.816 104.242 114.409 103.533L112.327 104.728L110.245 105.923C111.076 107.371 112.232 108.525 113.678 109.355L114.873 107.273ZM112.327 104.728L114.409 103.534C114.034 102.88 113.8 102.034 113.8 100.909H111.399H108.999C108.999 102.719 109.383 104.42 110.245 105.923L112.327 104.728ZM111.399 100.909L113.8 100.909C113.8 99.7844 114.034 98.9388 114.409 98.285L112.327 97.0905L110.245 95.8959C109.383 97.3987 108.999 99.0988 108.999 100.909L111.399 100.909ZM112.327 97.0905L114.409 98.2851C114.813 97.5818 115.347 97.0549 116.042 96.6677L114.873 94.5709L113.704 92.4742C112.242 93.2891 111.079 94.4423 110.245 95.8958L112.327 97.0905ZM114.873 94.5709L116.027 96.6757C116.738 96.2858 117.564 96.07 118.56 96.07V93.6696V91.2691C116.832 91.2691 115.2 91.6539 113.719 92.4661L114.873 94.5709ZM118.56 93.6696L118.559 96.07C119.371 96.0701 120.017 96.248 120.559 96.5545L121.741 94.4655L122.924 92.3764C121.591 91.6223 120.116 91.2692 118.56 91.2691L118.56 93.6696ZM121.741 94.4655L120.589 96.5713C120.859 96.7192 121.101 96.9112 121.321 97.1602L123.12 95.5709L124.919 93.9817C124.339 93.3252 123.662 92.7802 122.893 92.3596L121.741 94.4655ZM123.12 95.5709H125.521V88.3131H123.12H120.72V95.5709H123.12ZM123.12 88.3131V90.7136H126.408V88.3131V85.9126H123.12V88.3131ZM126.408 88.3131H124.008V107.99H126.408H128.809V88.3131H126.408ZM136.924 93.6696V96.07C137.943 96.07 138.761 96.2885 139.442 96.6677L140.61 94.5709L141.779 92.4742C140.303 91.6512 138.663 91.2691 136.924 91.2691V93.6696ZM140.61 94.5709L139.442 96.6676C140.125 97.0489 140.658 97.5768 141.065 98.297L143.155 97.1168L145.246 95.9367C144.415 94.4651 143.252 93.295 141.779 92.4742L140.61 94.5709ZM143.155 97.1168L141.065 98.2969C141.447 98.9735 141.684 99.8433 141.684 100.989H144.084H146.484C146.484 99.1644 146.101 97.4524 145.246 95.9368L143.155 97.1168ZM144.084 100.989L141.684 100.989C141.684 101.034 141.681 101.112 141.669 101.227L144.058 101.465L146.446 101.704C146.47 101.466 146.484 101.226 146.484 100.989L144.084 100.989ZM144.058 101.465H141.657C141.657 101.564 141.652 101.643 141.645 101.705L144.031 101.969L146.417 102.234C146.446 101.978 146.458 101.72 146.458 101.465H144.058ZM144.031 101.969V99.5689H132.92V101.969V104.37H144.031V101.969ZM132.92 101.969L130.56 102.406C130.7 103.165 130.966 103.884 131.361 104.549L133.424 103.322L135.487 102.095C135.392 101.935 135.321 101.753 135.28 101.532L132.92 101.969ZM133.424 103.322L131.361 104.549C131.993 105.613 132.891 106.429 133.994 106.981L135.067 104.834L136.141 102.687C135.829 102.531 135.632 102.339 135.487 102.095L133.424 103.322ZM135.067 104.834L133.994 106.981C135.085 107.526 136.276 107.764 137.507 107.764L137.507 105.364L137.507 102.963C136.9 102.963 136.464 102.848 136.141 102.687L135.067 104.834ZM137.507 105.364V107.764C138.551 107.764 139.569 107.602 140.525 107.23L139.655 104.993L138.785 102.756C138.468 102.879 138.054 102.963 137.507 102.963V105.364ZM139.655 104.993L140.525 107.23C141.519 106.844 142.382 106.241 143.107 105.464L141.353 103.826L139.598 102.188C139.333 102.472 139.064 102.647 138.785 102.756L139.655 104.993ZM141.353 103.826L139.541 105.401L141.318 107.443L143.129 105.868L144.94 104.292L143.164 102.25L141.353 103.826ZM143.129 105.868L141.306 104.306C140.932 104.742 140.444 105.103 139.79 105.377L140.716 107.591L141.642 109.806C142.932 109.266 144.053 108.479 144.951 107.43L143.129 105.868ZM140.716 107.591L139.81 105.368C139.194 105.619 138.415 105.775 137.428 105.775V108.175V110.576C138.916 110.576 140.329 110.341 141.621 109.815L140.716 107.591ZM137.428 108.175V105.775C136.174 105.775 135.188 105.53 134.402 105.119L133.291 107.247L132.18 109.374C133.763 110.201 135.535 110.576 137.428 110.576V108.175ZM133.291 107.247L134.44 105.139C133.634 104.7 133.046 104.13 132.621 103.418L130.56 104.648L128.498 105.878C129.382 107.359 130.614 108.521 132.142 109.354L133.291 107.247ZM130.56 104.648L132.635 103.443C132.233 102.749 132.005 101.926 132.005 100.909H129.604H127.204C127.204 102.685 127.614 104.355 128.484 105.853L130.56 104.648ZM129.604 100.909L132.005 100.909C132.005 99.8558 132.232 99.0318 132.615 98.3642L130.533 97.1696L128.451 95.9749C127.597 97.464 127.204 99.1334 127.204 100.909L129.604 100.909ZM130.533 97.1696L132.609 98.375C133.033 97.6456 133.591 97.0947 134.312 96.6877L133.132 94.5973L131.952 92.5069C130.481 93.3373 129.307 94.5017 128.457 95.9641L130.533 97.1696ZM133.132 94.5973L134.298 96.6957C135.016 96.2964 135.871 96.07 136.924 96.07L136.924 93.6696L136.924 91.2691C135.148 91.2691 133.475 91.6608 131.966 92.4989L133.132 94.5973ZM28.7744 96.8248L29.3566 94.496C29.0527 94.42 28.7228 94.3716 28.376 94.3716V96.7721V99.1726C28.2766 99.1726 28.2133 99.1589 28.1922 99.1536L28.7744 96.8248ZM28.376 96.7721L28.7151 94.3957C28.4788 94.362 28.2417 94.3453 28.0049 94.3453V96.7457V99.1462C28.0154 99.1462 28.0258 99.1469 28.0368 99.1485L28.376 96.7721ZM28.0049 96.7457L28.0048 94.3453C26.2469 94.3453 24.5906 94.8828 23.3116 96.1614L25.0088 97.859L26.7059 99.5566C26.9119 99.3507 27.253 99.1462 28.005 99.1462L28.0049 96.7457ZM25.0088 97.859L23.332 96.1413C21.9684 97.4724 21.4942 99.2857 21.4941 101.121L23.8945 101.121L26.295 101.121C26.2951 100.057 26.5643 99.6952 26.6856 99.5767L25.0088 97.859ZM23.8945 101.121H21.4941V107.99H23.8945H26.295V101.121H23.8945ZM23.8945 107.99V105.589H20.5801V107.99V110.39H23.8945V107.99ZM20.5801 107.99H22.9806V93.8287H20.5801H18.1796V107.99H20.5801ZM20.5801 93.8287V96.2292H23.7354V93.8287V91.4283H20.5801V93.8287ZM23.7354 93.8287H21.3349V95.902H23.7354H26.1358V93.8287H23.7354ZM23.7354 95.902L25.7464 97.2127C25.9317 96.9284 26.1734 96.7001 26.5088 96.5159L25.3535 94.4117L24.1983 92.3075C23.1897 92.8613 22.3527 93.6271 21.7243 94.5913L23.7354 95.902ZM25.3535 94.4117L26.4914 96.5254C26.9705 96.2674 27.6933 96.07 28.7744 96.07V93.6696V91.2691C27.1333 91.2691 25.575 91.5663 24.2156 92.2981L25.3535 94.4117ZM28.7744 93.6696H26.3739V96.8248H28.7744H31.1749V93.6696H28.7744ZM55.9883 93.6696L55.9882 96.07C56.8006 96.07 57.4317 96.227 57.9373 96.4798L59.0107 94.3326L60.0841 92.1855C58.8221 91.5546 57.4385 91.2691 55.9883 91.2691L55.9883 93.6696ZM59.0107 94.3326L57.9542 96.4881C58.3954 96.7044 58.7499 97.0302 59.0363 97.5438L61.1328 96.3746L63.2293 95.2054C62.4904 93.8805 61.4293 92.8449 60.0673 92.1772L59.0107 94.3326ZM61.1328 96.3746L59.046 97.5611C59.2892 97.9889 59.5009 98.7073 59.5009 99.8747L61.9014 99.8746L64.3018 99.8746C64.3018 98.1784 64.0015 96.5635 63.2196 95.1882L61.1328 96.3746ZM61.9014 99.8746H59.5009V107.99H61.9014H64.3018V99.8746H61.9014ZM61.9014 107.99V105.589H58.5869V107.99V110.39H61.9014V107.99ZM58.5869 107.99H60.9874V100.299H58.5869H56.1864V107.99H58.5869ZM58.5869 100.299H60.9874C60.9874 98.7035 60.6079 97.0511 59.4074 95.8153L57.6855 97.4879L55.9637 99.1605C55.9654 99.1622 56.1864 99.3849 56.1864 100.299H58.5869ZM57.6855 97.4879L59.4321 95.8412C58.2872 94.6269 56.7649 94.1597 55.2188 94.1597V96.5602V98.9607C55.7941 98.9607 55.917 99.1114 55.939 99.1347L57.6855 97.4879ZM55.2188 96.5602L55.2186 94.1597C54.1057 94.1598 53.0208 94.3902 52.0272 94.9162L53.1504 97.0377L54.2735 99.1592C54.482 99.0489 54.7763 98.9607 55.2189 98.9607L55.2188 96.5602ZM53.1504 97.0377L52.027 94.9163C50.975 95.4734 50.1696 96.3118 49.6222 97.3489L51.7451 98.4694L53.8681 99.5898C53.9924 99.3543 54.124 99.2384 54.2738 99.1591L53.1504 97.0377ZM51.7451 98.4694L49.6104 97.3715C49.065 98.432 48.8671 99.6275 48.8671 100.83H51.2676H53.6681C53.6681 100.123 53.7888 99.7442 53.8798 99.5672L51.7451 98.4694ZM51.2676 100.83H48.8671V107.99H51.2676H53.6681V100.83H51.2676ZM51.2676 107.99V105.589H47.9531V107.99V110.39H51.2676V107.99ZM47.9531 107.99H50.3536V93.8287H47.9531H45.5527V107.99H47.9531ZM47.9531 93.8287V96.2292H51.1084V93.8287V91.4283H47.9531V93.8287ZM51.1084 93.8287H48.7079V95.6686H51.1084H53.5089V93.8287H51.1084ZM51.1084 95.6686L52.9491 97.2094C53.1652 96.9512 53.4361 96.7308 53.7898 96.5507L52.7002 94.4117L51.6106 92.2728C50.7009 92.7362 49.9132 93.3567 49.2677 94.1277L51.1084 95.6686ZM52.7002 94.4117L53.805 96.5429C54.3698 96.2501 55.0769 96.07 55.9883 96.07V93.6696V91.2691C54.4249 91.2691 52.9398 91.5837 51.5954 92.2806L52.7002 94.4117ZM87.627 104.285L89.8756 105.125L93.7828 94.669L91.5342 93.8287L89.2856 92.9885L85.3783 103.445L87.627 104.285ZM91.5342 93.8287V96.2292H94.3184V93.8287V91.4283H91.5342V93.8287ZM94.3184 93.8287L92.062 94.648L95.8716 105.14L98.1279 104.321L100.384 103.502L96.5747 93.0095L94.3184 93.8287ZM98.1279 104.321L100.381 105.149L104.236 94.6565L101.982 93.8287L99.7292 93.001L95.8747 103.493L98.1279 104.321ZM101.982 93.8287V96.2292H104.926V93.8287V91.4283H101.982V93.8287ZM104.926 93.8287L102.674 92.998L97.45 107.159L99.7021 107.99L101.954 108.821L107.178 94.6595L104.926 93.8287ZM99.7021 107.99V105.589H96.5195V107.99V110.39H99.7021V107.99ZM96.5195 107.99L98.7678 107.149L95.1164 97.389L92.8682 98.2301L90.6199 99.0712L94.2712 108.831L96.5195 107.99ZM92.8682 98.2301L90.6252 97.375L86.9044 107.135L89.1475 107.99L91.3905 108.845L95.1112 99.0852L92.8682 98.2301ZM89.1475 107.99V105.589H85.9658V107.99V110.39H89.1475V107.99ZM85.9658 107.99L88.2193 107.163L83.021 93.0015L80.7676 93.8287L78.5141 94.6559L83.7124 108.817L85.9658 107.99ZM80.7676 93.8287V96.2292H83.8975V93.8287V91.4283H80.7676V93.8287ZM83.8975 93.8287L81.6365 94.6352L85.366 105.091L87.627 104.285L89.8879 103.478L86.1584 93.0223L83.8975 93.8287ZM152.539 104.325L154.742 105.279L159.289 94.7829L157.086 93.8287L154.883 92.8745L150.336 103.371L152.539 104.325ZM157.086 93.8287V96.2292H160.269V93.8287V91.4283H157.086V93.8287ZM160.269 93.8287L158.062 92.8826L151.989 107.044L154.195 107.99L156.401 108.936L162.475 94.7749L160.269 93.8287ZM154.195 107.99V105.589H150.774V107.99V110.39H154.195V107.99ZM150.774 107.99L152.981 107.044L146.908 92.8827L144.702 93.8287L142.496 94.7747L148.568 108.936L150.774 107.99ZM144.702 93.8287V96.2292H148.149V93.8287V91.4283H144.702V93.8287ZM148.149 93.8287L145.935 94.7549L150.324 105.251L152.539 104.325L154.754 103.399L150.364 92.9025L148.149 93.8287ZM9.87793 96.4801L9.87771 94.0796C8.71341 94.0797 7.59004 94.3424 6.56483 94.9119L7.73047 97.0104L8.89611 99.1088C9.14342 98.9715 9.45192 98.8806 9.87815 98.8806L9.87793 96.4801ZM7.73047 97.0104L6.56469 94.912C5.51323 95.4961 4.69445 96.344 4.11784 97.3872L6.21875 98.5485L8.31966 99.7097C8.48554 99.4096 8.675 99.2317 8.89624 99.1088L7.73047 97.0104ZM6.21875 98.5485L4.13109 97.3636C3.51357 98.4516 3.26168 99.6667 3.26163 100.909L5.66211 100.909L8.06258 100.909C8.06261 100.313 8.18148 99.9535 8.30641 99.7334L6.21875 98.5485ZM5.66211 100.909H3.26163C3.26163 102.145 3.51805 103.345 4.11773 104.43L6.21875 103.269L8.31977 102.108C8.17698 101.85 8.06258 101.476 8.06258 100.909H5.66211ZM6.21875 103.269L4.11775 104.43C4.69448 105.474 5.51325 106.322 6.5647 106.906L7.73047 104.807L8.89624 102.709C8.6748 102.586 8.48554 102.408 8.31975 102.108L6.21875 103.269ZM7.73047 104.807L6.56471 106.906C7.59011 107.475 8.71343 107.738 9.87771 107.738L9.87793 105.338L9.87815 102.937C9.45174 102.937 9.14344 102.846 8.89622 102.709L7.73047 104.807ZM9.87793 105.338V107.738C11.041 107.738 12.1682 107.476 13.191 106.891L12 104.807L10.809 102.723C10.5942 102.846 10.306 102.937 9.87793 102.937V105.338ZM12 104.807L13.1658 106.906C14.2171 106.322 15.036 105.474 15.6127 104.43L13.5117 103.269L11.4107 102.108C11.245 102.408 11.0557 102.586 10.8342 102.709L12 104.807ZM13.5117 103.269L15.6128 104.43C16.2124 103.345 16.4688 102.145 16.4688 100.909H14.0684H11.6679C11.6679 101.476 11.5535 101.85 11.4107 102.108L13.5117 103.269ZM14.0684 100.909L16.4688 100.909C16.4688 99.6667 16.2169 98.4516 15.5994 97.3636L13.5117 98.5485L11.4241 99.7333C11.549 99.9535 11.6679 100.313 11.6679 100.909L14.0684 100.909ZM13.5117 98.5485L15.6126 97.3873C15.036 96.344 14.2172 95.4961 13.1658 94.912L12 97.0104L10.8342 99.1088C11.0555 99.2317 11.2449 99.4096 11.4108 99.7097L13.5117 98.5485ZM12 97.0104L13.1909 94.9261C12.1683 94.3418 11.041 94.0796 9.87793 94.0796V96.4801V98.8806C10.3059 98.8806 10.5942 98.9718 10.8091 99.0946L12 97.0104ZM72.5234 96.4801L72.5233 94.0796C71.3508 94.0797 70.2168 94.3383 69.1842 94.9118L70.3496 97.0104L71.5151 99.109C71.7549 98.9757 72.0702 98.8806 72.5235 98.8806L72.5234 96.4801ZM70.3496 97.0104L69.1586 94.9262C68.1286 95.5148 67.3307 96.3609 66.7634 97.3872L68.8643 98.5485L70.9651 99.7097C71.1403 99.3928 71.3334 99.213 71.5406 99.0946L70.3496 97.0104ZM68.8643 98.5485L66.7766 97.3636C66.1591 98.4516 65.9072 99.6667 65.9071 100.909L68.3076 100.909L70.7081 100.909C70.7081 100.313 70.827 99.9535 70.9519 99.7334L68.8643 98.5485ZM68.3076 100.909H65.9071C65.9071 102.145 66.1635 103.345 66.7633 104.43L68.8643 103.269L70.9653 102.108C70.8225 101.85 70.7081 101.476 70.7081 100.909H68.3076ZM68.8643 103.269L66.7633 104.43C67.3307 105.457 68.1286 106.303 69.1586 106.891L70.3496 104.807L71.5406 102.723C71.3331 102.605 71.1403 102.425 70.9652 102.108L68.8643 103.269ZM70.3496 104.807L69.184 106.906C70.2091 107.475 71.3323 107.738 72.497 107.738L72.4971 105.338L72.4971 102.937C72.0711 102.937 71.7628 102.846 71.5152 102.709L70.3496 104.807ZM72.4971 105.338V107.738C73.6692 107.738 74.8041 107.48 75.8376 106.906L74.6719 104.807L73.5061 102.709C73.2668 102.842 72.9514 102.937 72.4971 102.937V105.338ZM74.6719 104.807L75.8378 106.906C76.9009 106.315 77.7198 105.452 78.2804 104.387L76.1562 103.269L74.0321 102.151C73.8856 102.429 73.7154 102.593 73.506 102.709L74.6719 104.807ZM76.1562 103.269L78.2572 104.43C78.8561 103.347 79.1143 102.147 79.1143 100.909H76.7139H74.3134C74.3134 101.474 74.1989 101.848 74.0553 102.108L76.1562 103.269ZM76.7139 100.909L79.1143 100.909C79.1143 99.6645 78.8606 98.4501 78.2439 97.3636L76.1562 98.5485L74.0686 99.7334C74.1944 99.955 74.3134 100.315 74.3134 100.909L76.7139 100.909ZM76.1562 98.5485L78.2803 97.4302C77.7199 96.3657 76.9011 95.5028 75.8376 94.912L74.6719 97.0104L73.5061 99.1088C73.7152 99.2249 73.8855 99.3882 74.0322 99.6668L76.1562 98.5485ZM74.6719 97.0104L75.8376 94.912C74.8118 94.3421 73.6877 94.0796 72.5234 94.0796V96.4801V98.8806C72.9503 98.8806 73.2591 98.9715 73.5061 99.1088L74.6719 97.0104ZM118.957 96.4801V94.0796C117.793 94.0796 116.669 94.3421 115.643 94.912L116.809 97.0104L117.974 99.1088C118.221 98.9715 118.53 98.8806 118.957 98.8806V96.4801ZM116.809 97.0104L115.618 94.9262C114.597 95.5093 113.801 96.3423 113.221 97.3455L115.298 98.5485L117.375 99.7514C117.572 99.4115 117.783 99.2184 118 99.0945L116.809 97.0104ZM115.298 98.5485L113.21 97.3636C112.594 98.4501 112.34 99.6645 112.34 100.909L114.74 100.909L117.141 100.909C117.141 100.315 117.26 99.955 117.386 99.7334L115.298 98.5485ZM114.74 100.909H112.34C112.34 102.147 112.598 103.347 113.197 104.43L115.298 103.269L117.399 102.108C117.255 101.848 117.141 101.474 117.141 100.909H114.74ZM115.298 103.269L113.22 104.472C113.802 105.476 114.597 106.308 115.617 106.891L116.809 104.807L118 102.723C117.783 102.599 117.572 102.406 117.375 102.066L115.298 103.269ZM116.809 104.807L115.643 106.906C116.669 107.476 117.793 107.738 118.957 107.738V105.338V102.937C118.53 102.937 118.221 102.846 117.974 102.709L116.809 104.807ZM118.957 105.338L118.957 107.738C120.121 107.738 121.247 107.475 122.269 106.892L121.078 104.807L119.887 102.723C119.672 102.846 119.384 102.937 118.957 102.937L118.957 105.338ZM121.078 104.807L122.244 106.906C123.295 106.322 124.114 105.474 124.691 104.43L122.59 103.269L120.489 102.108C120.323 102.408 120.134 102.586 119.912 102.709L121.078 104.807ZM122.59 103.269L124.667 104.472C125.299 103.38 125.574 102.165 125.574 100.909H123.174H120.773C120.773 101.456 120.658 101.815 120.512 102.066L122.59 103.269ZM123.174 100.909L125.574 100.909C125.574 99.6466 125.304 98.4165 124.653 97.3216L122.59 98.5485L120.527 99.7753C120.653 99.9886 120.773 100.333 120.773 100.909L123.174 100.909ZM122.59 98.5485L124.691 97.3872C124.114 96.3441 123.295 95.4961 122.244 94.912L121.078 97.0104L119.912 99.1088C120.134 99.2316 120.323 99.4096 120.489 99.7097L122.59 98.5485ZM121.078 97.0104L122.269 94.926C121.247 94.3423 120.121 94.0796 118.957 94.0796L118.957 96.4801L118.957 98.8806C119.384 98.8806 119.672 98.9717 119.887 99.0947L121.078 97.0104ZM37.6094 96.3209V93.9204C36.4365 93.9204 35.2987 94.1801 34.27 94.768L35.4609 96.8522L36.6519 98.9364C36.8607 98.8171 37.1558 98.7214 37.6094 98.7214V96.3209ZM35.4609 96.8522L34.2437 94.7832C33.2576 95.3633 32.4831 96.177 31.931 97.1706L34.0293 98.3365L36.1276 99.5025C36.2826 99.2236 36.4625 99.048 36.6781 98.9212L35.4609 96.8522ZM34.0293 98.3365L31.9196 97.1913C31.5342 97.9013 31.3054 98.6634 31.1987 99.4444L33.5771 99.7692L35.9556 100.094C35.994 99.8125 36.0645 99.6189 36.139 99.4818L34.0293 98.3365ZM33.5771 99.7692V102.17H41.6318V99.7692V97.3687H33.5771V99.7692ZM41.6318 99.7692L44.0151 99.4823C43.9159 98.6577 43.6691 97.8591 43.2463 97.1192L41.1621 98.3102L39.0779 99.5012C39.1552 99.6365 39.2191 99.811 39.2486 100.056L41.6318 99.7692ZM41.1621 98.3102L43.2463 97.1191C42.6801 96.1284 41.8857 95.3342 40.8953 94.7681L39.7041 96.8522L38.5129 98.9362C38.7596 99.0772 38.9371 99.2548 39.078 99.5012L41.1621 98.3102ZM39.7041 96.8522L40.9212 94.7831C39.9034 94.1844 38.7735 93.9205 37.6096 93.9204L37.6094 96.3209L37.6092 98.7214C38.036 98.7214 38.3029 98.8129 38.487 98.9212L39.7041 96.8522ZM136.924 96.3209L136.924 93.9204C135.75 93.9205 134.614 94.1805 133.586 94.7679L134.776 96.8522L135.967 98.9364C136.176 98.8169 136.471 98.7214 136.924 98.7214L136.924 96.3209ZM134.776 96.8522L133.559 94.7831C132.574 95.3625 131.798 96.1754 131.245 97.1707L133.344 98.3365L135.442 99.5024C135.596 99.225 135.776 99.049 135.993 98.9212L134.776 96.8522ZM133.344 98.3365L131.234 97.1913C130.847 97.9038 130.62 98.6666 130.514 99.4444L132.893 99.7692L135.271 100.094C135.31 99.8093 135.38 99.6164 135.453 99.4818L133.344 98.3365ZM132.893 99.7692V102.17H140.947V99.7692V97.3687H132.893V99.7692ZM140.947 99.7692L143.331 99.4824C143.231 98.6576 142.984 97.8591 142.562 97.1192L140.478 98.3102L138.393 99.5011C138.471 99.6365 138.535 99.811 138.564 100.056L140.947 99.7692ZM140.478 98.3102L142.562 97.1192C141.995 96.1269 141.199 95.3334 140.21 94.768L139.019 96.8522L137.828 98.9364C138.076 99.0781 138.253 99.256 138.393 99.5012L140.478 98.3102ZM139.019 96.8522L140.236 94.7831C139.218 94.1844 138.088 93.9204 136.924 93.9204V96.3209V98.7214C137.35 98.7214 137.617 98.8128 137.801 98.9212L139.019 96.8522ZM25.5762 4.04456L23.1833 3.85407C23.1802 3.89296 22.8103 8.54669 22.6256 14.6672C22.4419 20.7565 22.4365 28.4332 23.1944 34.4668L25.5762 34.1676L27.9579 33.8684C27.2488 28.223 27.242 20.8557 27.4244 14.812C27.6058 8.79957 27.9694 4.23126 27.9691 4.23505L25.5762 4.04456ZM25.5762 34.1676H23.1757V34.3151H25.5762H27.9766V34.1676H25.5762ZM25.5762 34.3151L27.521 35.7221C29.0085 33.6662 30.7796 31.9265 32.7488 30.5796L31.3936 28.5983L30.0383 26.617C27.5875 28.2933 25.4243 30.4298 23.6313 32.908L25.5762 34.3151ZM31.3936 28.5983L30.5864 26.3376C30.5229 26.3602 30.453 26.3854 30.3808 26.4121L31.2129 28.6637L32.045 30.9153C32.0928 30.8977 32.1437 30.8793 32.2008 30.859L31.3936 28.5983ZM31.2129 28.6637L32.5507 30.6568C33.2991 30.1545 34.0875 29.7001 34.9144 29.2979L33.8643 27.1393L32.8141 24.9807C31.7877 25.4801 30.807 26.045 29.8751 26.6706L31.2129 28.6637ZM33.8643 27.1393L34.9421 29.2842C36.2534 28.6252 37.6318 28.1286 39.0598 27.8119L38.54 25.4684L38.0203 23.1249C36.1926 23.5302 34.4401 24.1634 32.7864 24.9944L33.8643 27.1393ZM38.54 25.4684L39.1015 27.8023C40.8102 27.3912 42.651 27.1697 44.6182 27.1696L44.6182 24.7692L44.6181 22.3687C42.2888 22.3687 40.0704 22.6313 37.9786 23.1345L38.54 25.4684ZM44.6182 24.7692L44.6181 27.1696C55.3973 27.17 65.0898 37.6721 65.0898 51.0397H67.4902H69.8907C69.8907 35.6493 58.6366 22.3691 44.6182 22.3687L44.6182 24.7692ZM67.4902 51.0397L65.0898 51.0396C65.0896 64.3013 54.7311 74.9085 43.8574 74.9087L43.8574 77.3092L43.8575 79.7097C57.7812 79.7093 69.8905 66.5358 69.8907 51.0397L67.4902 51.0397ZM43.8574 77.3092L43.8574 74.9087C41.4852 74.9087 39.2391 74.4905 37.1573 73.7273L36.3311 75.9811L35.5048 78.2349C38.1083 79.1893 40.9134 79.7096 43.8574 79.7097L43.8574 77.3092ZM36.3311 75.9811L37.1187 73.7135C33.3795 72.4147 30.0452 69.8443 27.521 66.3553L25.5762 67.7623L23.6313 69.1694C26.6701 73.3697 30.7791 76.5938 35.5434 78.2487L36.3311 75.9811ZM25.5762 67.7623H23.1757V67.9889H25.5762H27.9766V67.7623H25.5762ZM25.5762 67.9889L23.307 67.2059C22.1173 70.6538 22.5574 74.7019 23.2442 77.5144L25.5762 76.9449L27.9081 76.3755C27.3107 73.9291 27.0947 70.9475 27.8454 68.7719L25.5762 67.9889ZM25.5762 76.9449V74.5445H15.0859V76.9449V79.3454H25.5762V76.9449ZM15.0859 76.9449H17.4864V9.27795H15.0859H12.6855V76.9449H15.0859ZM15.0859 9.27795L16.1575 11.426L26.6478 6.19257L25.5762 4.04456L24.5046 1.89655L14.0143 7.12994L15.0859 9.27795ZM89.4463 62.7389L87.1494 63.4366L91.5752 78.0069L93.8721 77.3092L96.1689 76.6115L91.7431 62.0412L89.4463 62.7389ZM93.8721 77.3092V74.9087H88.7578V77.3092V79.7097H93.8721V77.3092ZM88.7578 77.3092L90.98 76.4015C88.9363 71.3983 87.1134 66.9359 85.4027 62.7482C83.692 58.5606 82.0935 54.6476 80.4986 50.7433L78.2764 51.651L76.0541 52.5587C77.649 56.4632 79.2476 60.3762 80.9583 64.5638C82.669 68.7515 84.4919 73.2138 86.5356 78.2169L88.7578 77.3092ZM78.2764 51.651L76.5852 53.3546L87.7552 64.4425L89.4463 62.7389L91.1374 61.0353L79.9675 49.9474L78.2764 51.651ZM152.097 25.2379L149.874 24.3309C149.684 24.7979 149.717 24.89 149.418 25.4339C149.17 25.8867 148.743 26.4908 147.998 27.0878L149.5 28.9606L151.002 30.8333C152.302 29.7903 153.117 28.6731 153.627 27.7445C154.087 26.907 154.396 25.9578 154.319 26.145L152.097 25.2379ZM149.5 28.9606L147.998 27.0878C142.936 31.1469 140.163 35.1347 138.068 40.2638L140.29 41.1715L142.512 42.0793C144.309 37.6795 146.597 34.3648 151.002 30.8334L149.5 28.9606ZM140.29 41.1715L138.068 40.2638C133.241 52.0809 129.201 61.9703 123.306 76.4015L125.528 77.3092L127.751 78.2169C133.631 63.8216 137.7 53.8605 142.512 42.0792L140.29 41.1715ZM125.528 77.3092V74.9087H118.617V77.3092V79.7097H125.528V77.3092ZM118.617 77.3092L120.904 76.5789L114.968 57.993L112.682 58.7233L110.395 59.4535L116.33 78.0395L118.617 77.3092ZM112.682 58.7233L114.373 60.4269L120.656 54.1896L118.965 52.486L117.274 50.7824L110.99 57.0197L112.682 58.7233ZM118.965 52.486L116.639 53.0788L120.739 69.1696L123.065 68.5768L125.392 67.984L121.291 51.8932L118.965 52.486ZM123.065 68.5768L125.362 69.2744L138.526 25.9356L136.229 25.2379L133.933 24.5403L120.769 67.8791L123.065 68.5768ZM136.229 25.2379V27.6384H152.097V25.2379V22.8374H136.229V25.2379ZM42.4414 28.4772L41.6827 26.1998C32.2156 29.3537 25.6415 39.4671 25.6415 51.0397H28.042H30.4425C30.4425 41.1296 36.0519 33.136 43.2001 30.7546L42.4414 28.4772ZM28.042 51.0397L25.6415 51.0397C25.6417 62.6122 32.216 72.7238 41.6827 75.8776L42.4414 73.6002L43.2001 71.3228C36.052 68.9414 30.4426 60.9493 30.4425 51.0396L28.042 51.0397ZM42.4414 73.6002L43.2 75.8777C52.6673 72.7244 59.2421 62.6128 59.2423 51.0397L56.8418 51.0397L54.4413 51.0396C54.4412 60.9497 48.8315 68.9417 41.6828 71.3228L42.4414 73.6002ZM56.8418 51.0397H59.2423C59.2423 39.4666 52.6677 29.3532 43.2 26.1997L42.4414 28.4772L41.6828 30.7546C48.8315 33.1357 54.4413 41.1292 54.4413 51.0397H56.8418ZM103.707 39.1149L101.375 38.5471L93.402 71.3001L95.7344 71.8678L98.0667 72.4355L106.039 39.6826L103.707 39.1149ZM95.7344 71.8678L98.039 71.1963L95.2851 61.7451L92.9805 62.4166L90.6758 63.0882L93.4297 72.5393L95.7344 71.8678ZM92.9805 62.4166L95.3236 62.9382L102.51 30.654L100.167 30.1324L97.8239 29.6109L90.6373 61.895L92.9805 62.4166ZM100.167 30.1324L97.9337 31.0126L101.474 39.995L103.707 39.1149L105.94 38.2347L102.4 29.2523L100.167 30.1324ZM116.778 51.2574L115.087 49.5537L108.127 56.4619L109.818 58.1656L111.509 59.8694L118.469 52.9612L116.778 51.2574ZM109.818 58.1656H112.219V54.6188H109.818H107.418V58.1656H109.818ZM109.818 54.6188L111.509 56.3225L114.776 53.0803L113.085 51.3766L111.394 49.6728L108.127 52.915L109.818 54.6188ZM113.085 51.3766L114.776 49.6731L111.51 46.4299L109.818 48.1334L108.127 49.8369L111.394 53.0801L113.085 51.3766ZM109.818 48.1334H112.219V44.3483H109.818H107.418V48.1334H109.818ZM109.818 44.3483L108.127 46.0519L115.087 52.961L116.778 51.2574L118.469 49.5538L111.51 42.6447L109.818 44.3483ZM88.4697 48.2086L86.7783 46.5053L83.5791 49.682L85.2705 51.3854L86.9619 53.0887L90.1611 49.912L88.4697 48.2086ZM85.2705 51.3854L83.5796 53.0893L86.7788 56.2641L88.4697 54.5602L90.1606 52.8563L86.9614 49.6815L85.2705 51.3854ZM88.4697 54.5602H86.0693V57.6266H88.4697H90.8702V54.5602H88.4697ZM88.4697 57.6266L86.7756 55.926L86.5177 56.1828L88.2119 57.8834L89.9061 59.584L90.1639 59.3272L88.4697 57.6266ZM88.2119 57.8834L89.9031 56.1798L83.237 49.5626L81.5459 51.2662L79.8548 52.9699L86.5208 59.587L88.2119 57.8834ZM81.5459 51.2662L83.2372 52.9697L90.161 46.0957L88.4697 44.3922L86.7785 42.6887L79.8546 49.5627L81.5459 51.2662ZM88.4697 44.3922H86.0693V48.2086H88.4697H90.8702V44.3922H88.4697ZM84.1328 45.2448L82.4416 43.5412L76.4133 49.5255L78.1045 51.2291L79.7957 52.9327L85.824 46.9483L84.1328 45.2448ZM78.1045 51.2291L80.3267 50.3214C78.9735 47.0087 77.6376 43.7383 76.2183 40.2638L73.9961 41.1715L71.7739 42.0792C73.1813 45.5249 74.5409 48.8531 75.8823 52.1369L78.1045 51.2291ZM73.9961 41.1715L76.2183 40.2638C74.1231 35.1347 71.3504 31.147 66.2878 27.0878L64.7861 28.9606L63.2845 30.8334C67.6889 34.3648 69.9766 37.6796 71.7739 42.0793L73.9961 41.1715ZM64.7861 28.9606L66.2879 27.0878C65.5433 26.4908 65.1164 25.8866 64.8678 25.4337C64.5687 24.889 64.603 24.7986 64.4117 24.3302L62.1895 25.2379L59.9672 26.1456C59.89 25.9566 60.2 26.9075 60.6594 27.7443C61.1692 28.6728 61.9836 29.7902 63.2844 30.8333L64.7861 28.9606ZM62.1895 25.2379V27.6384H78.0566V25.2379V22.8374H62.1895V25.2379ZM78.0566 25.2379L75.7598 25.9355L81.8359 45.9423L84.1328 45.2448L86.4297 44.5472L80.3535 24.5403L78.0566 25.2379ZM118.443 50.442L120.129 48.7333L107.937 36.703L106.251 38.4117L104.565 40.1205L116.757 52.1507L118.443 50.442ZM106.251 38.4117L103.852 38.4957L103.859 38.691L106.258 38.6071L108.657 38.5231L108.65 38.3278L106.251 38.4117ZM106.258 38.6071L108.545 37.8768L104.341 24.7156L102.055 25.4459L99.768 26.1762L103.971 39.3373L106.258 38.6071ZM102.055 25.4459V27.8464H112.073V25.4459V23.0454H102.055V25.4459ZM112.073 25.4459L109.747 26.0387L116.117 51.0348L118.443 50.442L120.769 49.8492L114.399 24.8531L112.073 25.4459Z" fill="#D9D9D9" mask="url(#path-1-outside-1_11_757)"/>
<path d="M10.8316 108.603C9.6294 108.603 8.55983 108.338 7.62284 107.808C6.68586 107.277 5.94335 106.482 5.3953 105.421C4.86493 104.342 4.59975 102.981 4.59975 101.337C4.59975 99.6753 4.87377 98.314 5.42182 97.2532C5.98754 96.1925 6.7389 95.4058 7.67588 94.8931C8.63054 94.3627 9.68244 94.0976 10.8316 94.0976C12.2282 94.0976 13.4569 94.3981 14.5176 94.9992C15.596 95.6003 16.4446 96.44 17.0634 97.5184C17.6998 98.5968 18.0181 99.8697 18.0181 101.337C18.0181 102.804 17.6998 104.077 17.0634 105.156C16.4446 106.234 15.596 107.083 14.5176 107.701C13.4569 108.303 12.2282 108.603 10.8316 108.603ZM2.98212 108.417V88.7408H6.29692V97.5449L6.03174 101.311L6.13781 105.076V108.417H2.98212ZM10.4603 105.766C11.2559 105.766 11.963 105.589 12.5818 105.235C13.2182 104.882 13.7221 104.369 14.0933 103.697C14.4646 103.025 14.6502 102.239 14.6502 101.337C14.6502 100.418 14.4646 99.6311 14.0933 98.9769C13.7221 98.3051 13.2182 97.7924 12.5818 97.4389C11.963 97.0853 11.2559 96.9085 10.4603 96.9085C9.66476 96.9085 8.94876 97.0853 8.31232 97.4389C7.67588 97.7924 7.17203 98.3051 6.80077 98.9769C6.42952 99.6311 6.24389 100.418 6.24389 101.337C6.24389 102.239 6.42952 103.025 6.80077 103.697C7.17203 104.369 7.67588 104.882 8.31232 105.235C8.94876 105.589 9.66476 105.766 10.4603 105.766ZM21.1617 108.417V94.2567H24.3174V98.1549L23.9462 97.0146C24.3704 96.0599 25.0334 95.3351 25.935 94.8401C26.8543 94.3451 27.9946 94.0976 29.3559 94.0976V97.2532C29.2145 97.2179 29.0819 97.2002 28.9581 97.2002C28.8344 97.1825 28.7106 97.1737 28.5869 97.1737C27.3317 97.1737 26.3328 97.5449 25.5903 98.2875C24.8478 99.0123 24.4765 100.1 24.4765 101.549V108.417H21.1617ZM38.6945 108.603C37.1211 108.603 35.7421 108.294 34.5577 107.675C33.3908 107.039 32.4804 106.172 31.8263 105.076C31.1898 103.98 30.8716 102.734 30.8716 101.337C30.8716 99.9228 31.181 98.6764 31.7997 97.598C32.4362 96.5019 33.3024 95.6445 34.3985 95.0257C35.5123 94.4069 36.7764 94.0976 38.1907 94.0976C39.5696 94.0976 40.7983 94.3981 41.8767 94.9992C42.9551 95.6003 43.8037 96.4488 44.4225 97.5449C45.0413 98.641 45.3506 99.9316 45.3506 101.417C45.3506 101.558 45.3418 101.717 45.3241 101.894C45.3241 102.071 45.3153 102.239 45.2976 102.398H33.4969V100.197H43.5474L42.248 100.886C42.2657 100.073 42.0977 99.357 41.7441 98.7383C41.3906 98.1195 40.9044 97.6333 40.2856 97.2798C39.6845 96.9262 38.9862 96.7494 38.1907 96.7494C37.3774 96.7494 36.6614 96.9262 36.0427 97.2798C35.4416 97.6333 34.9643 98.1283 34.6107 98.7648C34.2748 99.3835 34.1068 100.117 34.1068 100.966V101.496C34.1068 102.345 34.3013 103.096 34.6902 103.75C35.0792 104.404 35.6272 104.908 36.3344 105.262C37.0415 105.615 37.8548 105.792 38.7741 105.792C39.5696 105.792 40.2856 105.668 40.9221 105.421C41.5585 105.173 42.1242 104.784 42.6192 104.254L44.396 106.296C43.7595 107.039 42.9551 107.613 41.9828 108.02C41.0281 108.409 39.932 108.603 38.6945 108.603ZM56.5698 94.0976C57.7012 94.0976 58.7089 94.3185 59.5929 94.7605C60.4945 95.2025 61.2017 95.8831 61.7143 96.8024C62.227 97.7041 62.4834 98.8709 62.4834 100.303V108.417H59.1686V100.727C59.1686 99.4719 58.868 98.535 58.267 97.9162C57.6836 97.2974 56.8615 96.9881 55.8007 96.9881C55.0229 96.9881 54.3334 97.1472 53.7323 97.4654C53.1312 97.7836 52.6627 98.2609 52.3268 98.8974C52.0086 99.5161 51.8495 100.303 51.8495 101.258V108.417H48.5347V94.2567H51.6904V98.0753L51.1335 96.9085C51.6285 96.0069 52.3445 95.3174 53.2815 94.8401C54.2362 94.3451 55.3323 94.0976 56.5698 94.0976ZM73.0787 108.603C71.629 108.603 70.3385 108.294 69.207 107.675C68.0756 107.039 67.1828 106.172 66.5287 105.076C65.8746 103.98 65.5475 102.734 65.5475 101.337C65.5475 99.9228 65.8746 98.6764 66.5287 97.598C67.1828 96.5019 68.0756 95.6445 69.207 95.0257C70.3385 94.4069 71.629 94.0976 73.0787 94.0976C74.5461 94.0976 75.8455 94.4069 76.9769 95.0257C78.126 95.6445 79.0188 96.493 79.6553 97.5715C80.3094 98.6499 80.6365 99.9051 80.6365 101.337C80.6365 102.734 80.3094 103.98 79.6553 105.076C79.0188 106.172 78.126 107.039 76.9769 107.675C75.8455 108.294 74.5461 108.603 73.0787 108.603ZM73.0787 105.766C73.8919 105.766 74.6168 105.589 75.2532 105.235C75.8897 104.882 76.3847 104.369 76.7383 103.697C77.1095 103.025 77.2951 102.239 77.2951 101.337C77.2951 100.418 77.1095 99.6311 76.7383 98.9769C76.3847 98.3051 75.8897 97.7924 75.2532 97.4389C74.6168 97.0853 73.9008 96.9085 73.1052 96.9085C72.292 96.9085 71.5672 97.0853 70.9307 97.4389C70.312 97.7924 69.817 98.3051 69.4457 98.9769C69.0744 99.6311 68.8888 100.418 68.8888 101.337C68.8888 102.239 69.0744 103.025 69.4457 103.697C69.817 104.369 70.312 104.882 70.9307 105.235C71.5672 105.589 72.2832 105.766 73.0787 105.766ZM86.5469 108.417L81.3493 94.2567H84.4785L88.9336 106.747H87.4486L92.1158 94.2567H94.9002L99.4349 106.747H97.9764L102.564 94.2567H105.508L100.283 108.417H97.1013L92.9644 97.3593H93.9456L89.7292 108.417H86.5469Z" fill="#0A2540"/>
<path d="M107.967 108.603C107.366 108.603 106.853 108.4 106.429 107.993C106.005 107.569 105.792 107.039 105.792 106.402C105.792 105.73 106.005 105.2 106.429 104.811C106.853 104.404 107.366 104.201 107.967 104.201C108.568 104.201 109.081 104.404 109.505 104.811C109.929 105.2 110.141 105.73 110.141 106.402C110.141 107.039 109.929 107.569 109.505 107.993C109.081 108.4 108.568 108.603 107.967 108.603Z" fill="#FF6F00"/>
<path d="M119.141 108.603C117.779 108.603 116.551 108.303 115.454 107.701C114.376 107.083 113.527 106.234 112.909 105.156C112.29 104.077 111.981 102.804 111.981 101.337C111.981 99.8697 112.29 98.5968 112.909 97.5184C113.527 96.44 114.376 95.6003 115.454 94.9992C116.551 94.3981 117.779 94.0976 119.141 94.0976C120.325 94.0976 121.386 94.3627 122.323 94.8931C123.26 95.4058 124.002 96.1925 124.55 97.2532C125.098 98.314 125.372 99.6753 125.372 101.337C125.372 102.981 125.107 104.342 124.577 105.421C124.046 106.482 123.313 107.277 122.376 107.808C121.439 108.338 120.36 108.603 119.141 108.603ZM119.538 105.766C120.334 105.766 121.041 105.589 121.66 105.235C122.296 104.882 122.8 104.369 123.171 103.697C123.56 103.025 123.755 102.239 123.755 101.337C123.755 100.418 123.56 99.6311 123.171 98.9769C122.8 98.3051 122.296 97.7924 121.66 97.4389C121.041 97.0853 120.334 96.9085 119.538 96.9085C118.743 96.9085 118.027 97.0853 117.39 97.4389C116.772 97.7924 116.268 98.3051 115.879 98.9769C115.508 99.6311 115.322 100.418 115.322 101.337C115.322 102.239 115.508 103.025 115.879 103.697C116.268 104.369 116.772 104.882 117.39 105.235C118.027 105.589 118.743 105.766 119.538 105.766ZM123.834 108.417V105.076L123.967 101.311L123.702 97.5449V88.7408H126.99V108.417H123.834ZM138.009 108.603C136.436 108.603 135.057 108.294 133.872 107.675C132.705 107.039 131.795 106.172 131.141 105.076C130.504 103.98 130.186 102.734 130.186 101.337C130.186 99.9228 130.495 98.6764 131.114 97.598C131.751 96.5019 132.617 95.6445 133.713 95.0257C134.827 94.4069 136.091 94.0976 137.505 94.0976C138.884 94.0976 140.113 94.3981 141.191 94.9992C142.27 95.6003 143.118 96.4488 143.737 97.5449C144.356 98.641 144.665 99.9316 144.665 101.417C144.665 101.558 144.656 101.717 144.639 101.894C144.639 102.071 144.63 102.239 144.612 102.398H132.811V100.197H142.862L141.562 100.886C141.58 100.073 141.412 99.357 141.059 98.7383C140.705 98.1195 140.219 97.6333 139.6 97.2798C138.999 96.9262 138.301 96.7494 137.505 96.7494C136.692 96.7494 135.976 96.9262 135.357 97.2798C134.756 97.6333 134.279 98.1283 133.925 98.7648C133.589 99.3835 133.421 100.117 133.421 100.966V101.496C133.421 102.345 133.616 103.096 134.005 103.75C134.394 104.404 134.942 104.908 135.649 105.262C136.356 105.615 137.169 105.792 138.089 105.792C138.884 105.792 139.6 105.668 140.237 105.421C140.873 105.173 141.439 104.784 141.934 104.254L143.71 106.296C143.074 107.039 142.27 107.613 141.297 108.02C140.343 108.409 139.247 108.603 138.009 108.603ZM151.356 108.417L145.283 94.2567H148.73L153.955 106.747H152.257L157.667 94.2567H160.849L154.777 108.417H151.356Z" fill="#007BFF"/>
<path d="M15.4136 10.4262L25.7247 5.24487C25.7247 5.24487 24.2813 23.4956 25.7247 35.0699C25.7247 48.1468 25.7247 57.3935 25.7247 68.5553C24.7709 71.3393 25.0936 74.8194 25.7247 77.4229C25.7247 77.105 25.956 78.3767 25.7247 77.4229H15.4136V10.4262Z" fill="#0A2540"/>
<path d="M42.6348 25.996C47.0973 25.996 51.2497 27.5451 54.7217 30.2059C52.5053 29.1535 50.0887 28.5741 47.5586 28.5741C36.8384 28.5742 28.1484 38.9613 28.1484 51.7743C28.1486 64.5871 36.8385 74.9744 47.5586 74.9745C50.0879 74.9745 52.5039 74.3945 54.7197 73.3427C51.2481 76.0027 47.0966 77.5516 42.6348 77.5516C30.4484 77.5514 20.5695 66.0107 20.5693 51.7743C20.5693 37.5377 30.4483 25.9963 42.6348 25.996Z" fill="#0A2540"/>
<path d="M44.4399 25.764C56.6264 25.7642 66.9204 37.5372 66.9204 51.7738C66.9204 66.0105 55.8785 77.7836 43.6919 77.7836C39.195 77.7835 35.0822 76.4166 31.6128 74.0521C33.3362 74.6513 35.1582 74.974 37.0435 74.974C47.7637 74.974 56.4546 64.5869 56.4546 51.7738C56.4546 38.9607 47.7637 28.5736 37.0435 28.5736C35.0315 28.5736 33.091 28.9394 31.2661 29.6185C34.8756 27.1785 39.3126 25.764 44.4399 25.764Z" fill="#FF6F00"/>
<path d="M150.077 26.2279H134.482L118.937 77.7837H123.964C129.751 63.5131 133.736 53.6864 138.473 42.004C140.386 37.2866 142.873 33.672 147.525 29.9141C149.536 28.2901 149.965 26.5045 150.077 26.2279Z" fill="#0A2540"/>
<path d="M88.5005 63.3578L92.8501 77.7836H87.8237C83.8063 67.8762 80.6571 60.1108 77.522 52.3793L88.5005 63.3578ZM83.2778 46.0365L77.3521 51.9623C76.0279 48.6967 74.7041 45.4301 73.3149 42.0043C71.4021 37.2869 68.9147 33.6722 64.2622 29.9144C62.2515 28.2904 61.8226 26.5045 61.7104 26.2279H77.3062L83.2778 46.0365Z" fill="#007BFF"/>
<path d="M87.5405 48.969L84.395 52.1155L87.5405 55.261V58.2942L87.2866 58.5491L80.7349 51.9973L87.5405 45.1926V48.969Z" fill="#FF6F00"/>
<path d="M115.364 51.9897L108.523 58.8306V55.3179L111.734 52.1079L108.523 48.897V45.1489L115.364 51.9897Z" fill="#007BFF"/>
<path d="M123.732 77.7838H117.171L111.337 59.3815L117.513 53.2057L123.732 77.7838ZM117.001 51.1832L105.017 39.2711L105.024 39.4645L100.893 26.4342H110.74L117.001 51.1832Z" fill="#F77311"/>
<path d="M99.0368 31.0742L102.517 39.9676L94.6803 72.3962L91.9736 63.0388L99.0368 31.0742Z" fill="#0A2540"/>
</svg>
